<?xml version="1.0" encoding="UTF-8" standalone="no"?>
<svg
   xmlns:dc="http://purl.org/dc/elements/1.1/"
   xmlns:cc="http://creativecommons.org/ns#"
   xmlns:rdf="http://www.w3.org/1999/02/22-rdf-syntax-ns#"
   xmlns:svg="http://www.w3.org/2000/svg"
   xmlns="http://www.w3.org/2000/svg"
   xmlns:sodipodi="http://sodipodi.sourceforge.net/DTD/sodipodi-0.dtd"
   xmlns:inkscape="http://www.inkscape.org/namespaces/inkscape"
   version="1.0"
   width="1318.4052pt"
   height="1034.8782pt"
   viewBox="0 0 1318.4052 1034.8782"
   preserveAspectRatio="xMidYMid meet"
   id="svg14"
   sodipodi:docname="Whale.svg"
   inkscape:version="1.0.2 (e86c870879, 2021-01-15)">
  <defs
     id="defs18" />
  <sodipodi:namedview
     pagecolor="#ffffff"
     bordercolor="#666666"
     borderopacity="1"
     objecttolerance="10"
     gridtolerance="10"
     guidetolerance="10"
     inkscape:pageopacity="0"
     inkscape:pageshadow="2"
     inkscape:window-width="1920"
     inkscape:window-height="1051"
     id="namedview16"
     showgrid="false"
     inkscape:zoom="0.34003863"
     inkscape:cx="296.85315"
     inkscape:cy="365.47046"
     inkscape:window-x="0"
     inkscape:window-y="0"
     inkscape:window-maximized="1"
     inkscape:current-layer="svg14" />
  <metadata
     id="metadata2">
Created by potrace 1.15, written by Peter Selinger 2001-2017
<rdf:RDF>
  <cc:Work
     rdf:about="">
    <dc:format>image/svg+xml</dc:format>
    <dc:type
       rdf:resource="http://purl.org/dc/dcmitype/StillImage" />
  </cc:Work>
</rdf:RDF>
</metadata>
  <g
     transform="matrix(0.1,0,0,-0.1,3.1837491,1152.191)"
     fill="#000000"
     stroke="none"
     id="g12">
    <path
       d="M 3784,10506 C 3481,9998 3556,9387 3999,8749 4925.9995,7469.2418 6435.2957,8541.0043 7536,7971 8413.1044,7415.207 8334.2617,6340.5581 8785,5598 8848.0643,5530.9712 8867.455,5554.2159 8915,5600 8886.4437,7369.916 8733.8445,9688.3746 7571,10909 6375.2694,11768.987 4575.5598,11801.77 3784,10506 Z"
       id="path4"
       sodipodi:nodetypes="ccccccc" />
    <path
       d="M 10047,10804 C 9558,10616 9253,10109 9131,9280 9084,8961 9077,8828 9074,8150 9073,7795 9069,7448 9066,7379 9061,7269 9062,7251 9076,7246 9147,7219 9165,7252 9282,7610 9480.4925,8363.658 9988.3937,8813.0936 10730,8880 11234,8920 11619,9219 11756,9676 11966.301,10646.409 10547.264,10982.533 10047,10804 Z"
       id="path6"
       sodipodi:nodetypes="ccccccccc" />
    <path
       d="M 11660,8983 C 10087.339,8733.0931 9392.2662,7283.1429 9051,5890 8979,5588 8977,5560 9025,5560 9062,5560 9083,5587 9143,5708 9306,6037 9630,6404 9943,6613 10767.968,7229.5338 12025.839,6456.3816 12659,6922 13790.761,7754.2826 12768.841,9053.6865 11660,8983 Z"
       id="path8"
       sodipodi:nodetypes="ccsccsc" />
    <path
       d="M 3460,6390 C 3139.871,5341.6604 2117.1136,6341.022 1988,5179 1105.3826,6318.3807 845.02413,5134.4313 11,5818 -242.0457,5356.5638 662.04873,4764.0223 1772.4728,4842.2648 1845.1882,-93.909044 11521.853,547.68663 11428.618,3267.5315 11313.953,6612.5415 6821.6955,5370.6036 5594,4210 3302.428,1985.0309 2250.3458,3336.1846 2399,4892 3301.2549,4976.3771 3881.3733,6382.61 3460,6390 Z"
       id="path10"
       sodipodi:nodetypes="ccccsccc" />
  </g>
</svg>
