<?xml version="1.0" encoding="UTF-8" standalone="no"?>
<svg
   xmlns:dc="http://purl.org/dc/elements/1.1/"
   xmlns:cc="http://creativecommons.org/ns#"
   xmlns:rdf="http://www.w3.org/1999/02/22-rdf-syntax-ns#"
   xmlns:svg="http://www.w3.org/2000/svg"
   xmlns="http://www.w3.org/2000/svg"
   xmlns:sodipodi="http://sodipodi.sourceforge.net/DTD/sodipodi-0.dtd"
   xmlns:inkscape="http://www.inkscape.org/namespaces/inkscape"
   version="1.1"
   id="svg2"
   xml:space="preserve"
   width="412.0835"
   height="200.6371"
   viewBox="0 0 412.08349 200.6371"
   sodipodi:docname="Chroma key-Sat transfer.svg"
   inkscape:version="1.0.2 (e86c870879, 2021-01-15)"><metadata
     id="metadata8"><rdf:RDF><cc:Work
         rdf:about=""><dc:format>image/svg+xml</dc:format><dc:type
           rdf:resource="http://purl.org/dc/dcmitype/StillImage" /><dc:title /></cc:Work></rdf:RDF></metadata><defs
     id="defs6"><marker
       style="overflow:visible"
       id="Arrow1Lstart"
       refX="0.0"
       refY="0.0"
       orient="auto"
       inkscape:stockid="Arrow1Lstart"
       inkscape:isstock="true"><path
         transform="scale(0.8) translate(12.5,0)"
         style="fill-rule:evenodd;stroke:#ff0000;stroke-width:1pt;stroke-opacity:1;fill:#ff0000;fill-opacity:1"
         d="M 0.0,0.0 L 5.0,-5.0 L -12.5,0.0 L 5.0,5.0 L 0.0,0.0 z "
         id="path883" /></marker><marker
       style="overflow:visible;"
       id="Arrow1Lend"
       refX="0.0"
       refY="0.0"
       orient="auto"
       inkscape:stockid="Arrow1Lend"
       inkscape:isstock="true"><path
         transform="scale(0.8) rotate(180) translate(12.5,0)"
         style="fill-rule:evenodd;stroke:#ff0000;stroke-width:1pt;stroke-opacity:1;fill:#ff0000;fill-opacity:1"
         d="M 0.0,0.0 L 5.0,-5.0 L -12.5,0.0 L 5.0,5.0 L 0.0,0.0 z "
         id="path886" /></marker></defs><sodipodi:namedview
     pagecolor="#ffffff"
     bordercolor="#666666"
     borderopacity="1"
     objecttolerance="10"
     gridtolerance="10"
     guidetolerance="10"
     inkscape:pageopacity="0"
     inkscape:pageshadow="2"
     inkscape:window-width="3840"
     inkscape:window-height="2119"
     id="namedview4"
     showgrid="false"
     inkscape:zoom="3.3772118"
     inkscape:cx="83.082538"
     inkscape:cy="73.133342"
     inkscape:window-x="0"
     inkscape:window-y="0"
     inkscape:window-maximized="1"
     inkscape:current-layer="g12"
     inkscape:document-rotation="0" /><g
     id="g10"
     inkscape:groupmode="layer"
     inkscape:label="ink_ext_XXXXXX"
     transform="matrix(1.3333333,0,0,-1.3333333,-27.249999,204.33349)"><g
       id="g12"
       transform="scale(0.1)"><path
         d="M 472.5,277.5 H 3292.5 V 1530 H 472.5 Z"
         style="fill:#ffffff;fill-opacity:1;fill-rule:nonzero;stroke:none"
         id="path18" /><path
         d="M 472.5,277.5 H 3292.5"
         style="fill:none;stroke:#262626;stroke-width:5.0025;stroke-linecap:square;stroke-linejoin:round;stroke-miterlimit:10;stroke-dasharray:none;stroke-opacity:1"
         id="path20" /><path
         d="M 472.5,1530 H 3292.5"
         style="fill:none;stroke:#262626;stroke-width:5.0025;stroke-linecap:square;stroke-linejoin:round;stroke-miterlimit:10;stroke-dasharray:none;stroke-opacity:1"
         id="path22" /><path
         d="M 472.5,277.5 V 305.699"
         style="fill:none;stroke:#262626;stroke-width:5.0025;stroke-linecap:square;stroke-linejoin:round;stroke-miterlimit:10;stroke-dasharray:none;stroke-opacity:1"
         id="path24" /><path
         d="M 1036.5,277.5 V 305.699"
         style="fill:none;stroke:#262626;stroke-width:5.0025;stroke-linecap:square;stroke-linejoin:round;stroke-miterlimit:10;stroke-dasharray:none;stroke-opacity:1"
         id="path26" /><path
         d="M 1600.5,277.5 V 305.699"
         style="fill:none;stroke:#262626;stroke-width:5.0025;stroke-linecap:square;stroke-linejoin:round;stroke-miterlimit:10;stroke-dasharray:none;stroke-opacity:1"
         id="path28" /><path
         d="M 2164.5,277.5 V 305.699"
         style="fill:none;stroke:#262626;stroke-width:5.0025;stroke-linecap:square;stroke-linejoin:round;stroke-miterlimit:10;stroke-dasharray:none;stroke-opacity:1"
         id="path30" /><path
         d="M 2728.5,277.5 V 305.699"
         style="fill:none;stroke:#262626;stroke-width:5.0025;stroke-linecap:square;stroke-linejoin:round;stroke-miterlimit:10;stroke-dasharray:none;stroke-opacity:1"
         id="path32" /><path
         d="M 3292.5,277.5 V 305.699"
         style="fill:none;stroke:#262626;stroke-width:5.0025;stroke-linecap:square;stroke-linejoin:round;stroke-miterlimit:10;stroke-dasharray:none;stroke-opacity:1"
         id="path34" /><path
         d="M 472.5,1530 V 1501.8"
         style="fill:none;stroke:#262626;stroke-width:5.0025;stroke-linecap:square;stroke-linejoin:round;stroke-miterlimit:10;stroke-dasharray:none;stroke-opacity:1"
         id="path36" /><path
         d="M 1036.5,1530 V 1501.8"
         style="fill:none;stroke:#262626;stroke-width:5.0025;stroke-linecap:square;stroke-linejoin:round;stroke-miterlimit:10;stroke-dasharray:none;stroke-opacity:1"
         id="path38" /><path
         d="M 1600.5,1530 V 1501.8"
         style="fill:none;stroke:#262626;stroke-width:5.0025;stroke-linecap:square;stroke-linejoin:round;stroke-miterlimit:10;stroke-dasharray:none;stroke-opacity:1"
         id="path40" /><path
         d="M 2164.5,1530 V 1501.8"
         style="fill:none;stroke:#262626;stroke-width:5.0025;stroke-linecap:square;stroke-linejoin:round;stroke-miterlimit:10;stroke-dasharray:none;stroke-opacity:1"
         id="path42" /><path
         d="M 2728.5,1530 V 1501.8"
         style="fill:none;stroke:#262626;stroke-width:5.0025;stroke-linecap:square;stroke-linejoin:round;stroke-miterlimit:10;stroke-dasharray:none;stroke-opacity:1"
         id="path44" /><path
         d="M 3292.5,1530 V 1501.8"
         style="fill:none;stroke:#262626;stroke-width:5.0025;stroke-linecap:square;stroke-linejoin:round;stroke-miterlimit:10;stroke-dasharray:none;stroke-opacity:1"
         id="path46" /><path
         d="M 472.5,277.5 V 1530"
         style="fill:none;stroke:#262626;stroke-width:5.0025;stroke-linecap:square;stroke-linejoin:round;stroke-miterlimit:10;stroke-dasharray:none;stroke-opacity:1"
         id="path58" /><path
         d="M 3292.5,277.5 V 1530"
         style="fill:none;stroke:#262626;stroke-width:5.0025;stroke-linecap:square;stroke-linejoin:round;stroke-miterlimit:10;stroke-dasharray:none;stroke-opacity:1"
         id="path60" /><text
         transform="scale(1,-1)"
         style="font-variant:normal;font-weight:normal;font-size:90px;font-family:Helvetica;-inkscape-font-specification:Helvetica;writing-mode:lr-tb;fill:#262626;fill-opacity:1;fill-rule:nonzero;stroke:none;stroke-width:10"
         id="text52"
         x="442.5"
         y="-159.5"><tspan
           x="442.5 961.50031 1011.5403 1036.5603 1525.5006 1575.5406 1600.5605 2089.501 2139.5408 2164.5608 2653.5012 2703.5413 2728.5613 3262.5015"
           y="-159.5"
           sodipodi:role="line"
           id="tspan50"
           style="stroke-width:10">00.20.40.60.81</tspan></text><text
         transform="scale(1,-1)"
         style="font-variant:normal;font-weight:normal;font-size:99px;font-family:Helvetica;-inkscape-font-specification:Helvetica;writing-mode:lr-tb;fill:#262626;fill-opacity:1;fill-rule:nonzero;stroke:none;stroke-width:10"
         id="text56"
         x="1856.25"
         y="-30"><tspan
           x="1856.25"
           y="-30"
           id="tspan54"
           style="stroke-width:10">s</tspan></text><path
         d="M 472.5,381.879 H 500.699"
         style="fill:none;stroke:#262626;stroke-width:5.0025;stroke-linecap:square;stroke-linejoin:round;stroke-miterlimit:10;stroke-dasharray:none;stroke-opacity:1"
         id="path62" /><path
         d="M 472.5,590.625 H 500.699"
         style="fill:none;stroke:#262626;stroke-width:5.0025;stroke-linecap:square;stroke-linejoin:round;stroke-miterlimit:10;stroke-dasharray:none;stroke-opacity:1"
         id="path64" /><path
         d="M 472.5,799.371 H 500.699"
         style="fill:none;stroke:#262626;stroke-width:5.0025;stroke-linecap:square;stroke-linejoin:round;stroke-miterlimit:10;stroke-dasharray:none;stroke-opacity:1"
         id="path66" /><path
         d="M 472.5,1008.13 H 500.699"
         style="fill:none;stroke:#262626;stroke-width:5.0025;stroke-linecap:square;stroke-linejoin:round;stroke-miterlimit:10;stroke-dasharray:none;stroke-opacity:1"
         id="path68" /><path
         d="M 472.5,1216.88 H 500.699"
         style="fill:none;stroke:#262626;stroke-width:5.0025;stroke-linecap:square;stroke-linejoin:round;stroke-miterlimit:10;stroke-dasharray:none;stroke-opacity:1"
         id="path70" /><path
         d="M 472.5,1425.62 H 500.699"
         style="fill:none;stroke:#262626;stroke-width:5.0025;stroke-linecap:square;stroke-linejoin:round;stroke-miterlimit:10;stroke-dasharray:none;stroke-opacity:1"
         id="path72" /><path
         d="M 3292.5,381.879 H 3264.3"
         style="fill:none;stroke:#262626;stroke-width:5.0025;stroke-linecap:square;stroke-linejoin:round;stroke-miterlimit:10;stroke-dasharray:none;stroke-opacity:1"
         id="path74" /><path
         d="M 3292.5,590.625 H 3264.3"
         style="fill:none;stroke:#262626;stroke-width:5.0025;stroke-linecap:square;stroke-linejoin:round;stroke-miterlimit:10;stroke-dasharray:none;stroke-opacity:1"
         id="path76" /><path
         d="M 3292.5,799.371 H 3264.3"
         style="fill:none;stroke:#262626;stroke-width:5.0025;stroke-linecap:square;stroke-linejoin:round;stroke-miterlimit:10;stroke-dasharray:none;stroke-opacity:1"
         id="path78" /><path
         d="M 3292.5,1008.13 H 3264.3"
         style="fill:none;stroke:#262626;stroke-width:5.0025;stroke-linecap:square;stroke-linejoin:round;stroke-miterlimit:10;stroke-dasharray:none;stroke-opacity:1"
         id="path80" /><path
         d="M 3292.5,1216.88 H 3264.3"
         style="fill:none;stroke:#262626;stroke-width:5.0025;stroke-linecap:square;stroke-linejoin:round;stroke-miterlimit:10;stroke-dasharray:none;stroke-opacity:1"
         id="path82" /><path
         d="M 3292.5,1425.62 H 3264.3"
         style="fill:none;stroke:#262626;stroke-width:5.0025;stroke-linecap:square;stroke-linejoin:round;stroke-miterlimit:10;stroke-dasharray:none;stroke-opacity:1"
         id="path84" /><path
         d="M 248.559,889.566 C 248.559,886.523 247.836,883.809 246.391,881.422 244.941,879.043 242.984,877.188 240.523,875.859 238.066,874.531 235.234,873.871 232.027,873.871 227.652,873.871 223.297,875.102 218.961,877.559 214.629,880.02 211.113,883.301 208.418,887.398 205.723,891.504 204.375,895.781 204.375,900.234 204.375,903.516 205.254,906.41 207.016,908.91 208.77,911.41 211.074,913.324 213.922,914.648 216.777,915.977 219.844,916.641 223.125,916.641 L 229.688,916.754 C 226.563,918.945 223.34,920.801 220.02,922.328 216.699,923.848 213.281,925.039 209.766,925.898 209.379,926.051 209.184,926.289 209.184,926.602 V 927.773 C 209.184,928.398 209.496,928.711 210.121,928.711 210.121,928.711 210.199,928.672 210.352,928.598 213.324,927.813 216.191,926.855 218.961,925.727 221.738,924.59 224.395,923.262 226.934,921.734 229.477,920.215 231.797,918.555 233.902,916.754 241.953,916.754 245.977,917.691 245.977,919.566 245.977,920.742 245.625,921.719 244.922,922.5 244.219,923.281 243.344,923.961 242.289,924.547 241.234,925.137 240.703,925.512 240.703,925.664 V 926.836 C 240.703,927.387 241.016,927.66 241.641,927.66 243.281,927.66 244.844,926.723 246.328,924.848 247.816,922.973 248.559,921.137 248.559,919.336 248.559,916.988 247.797,915.039 246.27,913.477 244.746,911.914 242.773,910.859 240.352,910.313 242.926,907.266 244.941,903.969 246.391,900.414 247.836,896.859 248.559,893.242 248.559,889.566 Z M 245.977,889.809 C 245.977,896.758 243.125,903.438 237.422,909.848 237.031,909.766 236.563,909.707 236.016,909.668 235.469,909.629 235.156,909.609 235.078,909.609 H 224.648 C 212.852,909.609 206.953,906.406 206.953,900 206.953,896.25 208.574,892.93 211.816,890.039 215.059,887.148 218.949,885.004 223.477,883.598 228.008,882.188 232.148,881.484 235.898,881.484 238.711,881.484 241.094,882.188 243.047,883.598 245,885.004 245.977,887.074 245.977,889.809"
         style="fill:#262626;fill-opacity:1;fill-rule:nonzero;stroke:none"
         id="path102" /><path
         d="M 472.5,1425.62 H 1036.5 C 1306.2801,1424.8291 1322.2848,381.60523 1600.5,381.879 H 1628.7 1656.9 1685.1 1713.3 1741.5 1769.7 1797.9 1826.1 1854.3 1882.5 1910.7 1938.9 1967.1 1995.3 2023.5 2051.7 2079.9 2108.1 2136.3 2164.5 2192.7 2220.9 2249.1 2277.3 2305.5 2333.7 2361.9 2390.1 2418.3 2446.5 2474.7 2502.9 2531.1 2559.3 2587.5 2615.7 2643.9 2672.1 2700.3 2728.5 2756.7 2784.9 2813.1 2841.3 2869.5 2897.7 2925.9 2954.1 2982.3 3010.5 3038.7 3066.9 3095.1 3123.3 3151.5 3179.7 3207.9 3236.1 3264.3 3292.5"
         style="fill:none;stroke:#0072bd;stroke-width:5.0025;stroke-linecap:butt;stroke-linejoin:round;stroke-miterlimit:10;stroke-dasharray:none;stroke-opacity:1"
         id="path104"
         sodipodi:nodetypes="ccccccccccccccccccccccccccccccccccccccccccccccccccccccccccccccc" /><text
         transform="scale(1,-1)"
         style="font-variant:normal;font-weight:normal;font-size:90px;font-family:Helvetica;-inkscape-font-specification:Helvetica;writing-mode:lr-tb;fill:#262626;fill-opacity:1;fill-rule:nonzero;stroke:none;stroke-width:10"
         id="text100"
         x="384.5"
         y="-348.125"><tspan
           x="384.5"
           y="-348.125"
           id="tspan88"
           style="stroke-width:10">0</tspan><tspan
           x="294.5 344.54001 369.56"
           y="-556.875"
           sodipodi:role="line"
           id="tspan90"
           style="stroke-width:10">0.2</tspan><tspan
           x="294.5 344.54001 369.56"
           y="-765.625"
           sodipodi:role="line"
           id="tspan92"
           style="stroke-width:10">0.4</tspan><tspan
           x="294.5 344.54001 369.56"
           y="-974.375"
           sodipodi:role="line"
           id="tspan94"
           style="stroke-width:10">0.6</tspan><tspan
           x="294.5 344.54001 369.56"
           y="-1183.125"
           sodipodi:role="line"
           id="tspan96"
           style="stroke-width:10">0.8</tspan><tspan
           x="384.5"
           y="-1391.875"
           id="tspan98"
           style="stroke-width:10">1</tspan></text><path
         style="fill:none;stroke:#ff0000;stroke-width:7.5px;stroke-linecap:butt;stroke-linejoin:miter;stroke-opacity:1"
         d="M 1036.5,1425.6187 V 277.49999"
         id="path873"
         sodipodi:nodetypes="cc" /><path
         style="fill:none;stroke:#ff0000;stroke-width:7.5px;stroke-linecap:butt;stroke-linejoin:miter;stroke-opacity:1"
         d="M 1600.5,1425.6187 V 277.49999"
         id="path875"
         sodipodi:nodetypes="cc" /><text
         xml:space="preserve"
         style="font-style:normal;font-weight:normal;font-size:102.094px;line-height:1.25;font-family:sans-serif;fill:#ff0000;fill-opacity:1;stroke:none;stroke-width:2.55235"
         x="1644.2866"
         y="-649.5874"
         id="text879"
         transform="scale(1,-1)"><tspan
           sodipodi:role="line"
           id="tspan877"
           x="1644.2866"
           y="-649.5874"
           style="fill:#ff0000;fill-opacity:1;stroke-width:2.55235">threshold</tspan></text><path
         style="fill:none;stroke:#ff0000;stroke-width:7.5px;stroke-linecap:butt;stroke-linejoin:miter;stroke-opacity:1;marker-end:url(#Arrow1Lend);marker-start:url(#Arrow1Lstart)"
         d="M 1036.5,1425.62 1600.5,1425.6187"
         id="path881" /><text
         xml:space="preserve"
         style="font-style:normal;font-weight:normal;font-size:102.094px;line-height:1.25;font-family:sans-serif;fill:#ff0000;fill-opacity:1;stroke:none;stroke-width:2.55235"
         x="1020.601"
         y="-1449.7694"
         id="text879-3"
         transform="scale(1,-1)"><tspan
           sodipodi:role="line"
           id="tspan877-6"
           x="1020.601"
           y="-1449.7694"
           style="fill:#ff0000;fill-opacity:1;stroke-width:2.55235">smoothness</tspan></text></g></g></svg>
