<?xml version="1.0" encoding="UTF-8" standalone="no"?>
<svg
   xmlns:dc="http://purl.org/dc/elements/1.1/"
   xmlns:cc="http://creativecommons.org/ns#"
   xmlns:rdf="http://www.w3.org/1999/02/22-rdf-syntax-ns#"
   xmlns:svg="http://www.w3.org/2000/svg"
   xmlns="http://www.w3.org/2000/svg"
   xmlns:sodipodi="http://sodipodi.sourceforge.net/DTD/sodipodi-0.dtd"
   xmlns:inkscape="http://www.inkscape.org/namespaces/inkscape"
   version="1.1"
   id="svg2"
   xml:space="preserve"
   width="560"
   height="420"
   viewBox="0 0 560 420"
   sodipodi:docname="gamma.svg"
   inkscape:version="1.0.2 (e86c870879, 2021-01-15)"><metadata
     id="metadata8"><rdf:RDF><cc:Work
         rdf:about=""><dc:format>image/svg+xml</dc:format><dc:type
           rdf:resource="http://purl.org/dc/dcmitype/StillImage" /><dc:title></dc:title></cc:Work></rdf:RDF></metadata><defs
     id="defs6" /><sodipodi:namedview
     pagecolor="#ffffff"
     bordercolor="#666666"
     borderopacity="1"
     objecttolerance="10"
     gridtolerance="10"
     guidetolerance="10"
     inkscape:pageopacity="0"
     inkscape:pageshadow="2"
     inkscape:window-width="3840"
     inkscape:window-height="2119"
     id="namedview4"
     showgrid="false"
     inkscape:zoom="1.7452381"
     inkscape:cx="280"
     inkscape:cy="210"
     inkscape:window-x="0"
     inkscape:window-y="0"
     inkscape:window-maximized="1"
     inkscape:current-layer="g10" /><g
     id="g10"
     inkscape:groupmode="layer"
     inkscape:label="ink_ext_XXXXXX"
     transform="matrix(1.3333333,0,0,-1.3333333,0,420)"><g
       id="g12"
       transform="scale(0.1)"><path
         d="M 0,0 H 4200 V 3150 H 0 Z"
         style="fill:#ffffff;fill-opacity:1;fill-rule:nonzero;stroke:none"
         id="path14" /><path
         d="M 0,0 H 4200 V 3150 H 0 Z"
         style="fill:#ffffff;fill-opacity:1;fill-rule:nonzero;stroke:none"
         id="path16" /><path
         d="M 547.5,345 H 3802.5 V 2917.5 H 547.5 Z"
         style="fill:#ffffff;fill-opacity:1;fill-rule:nonzero;stroke:none"
         id="path18" /><path
         d="M 547.5,345 H 3802.5"
         style="fill:none;stroke:#262626;stroke-width:5.0025;stroke-linecap:square;stroke-linejoin:round;stroke-miterlimit:10;stroke-dasharray:none;stroke-opacity:1"
         id="path20" /><path
         d="M 547.5,2917.5 H 3802.5"
         style="fill:none;stroke:#262626;stroke-width:5.0025;stroke-linecap:square;stroke-linejoin:round;stroke-miterlimit:10;stroke-dasharray:none;stroke-opacity:1"
         id="path22" /><path
         d="M 547.5,345 V 377.551"
         style="fill:none;stroke:#262626;stroke-width:5.0025;stroke-linecap:square;stroke-linejoin:round;stroke-miterlimit:10;stroke-dasharray:none;stroke-opacity:1"
         id="path24" /><path
         d="M 1198.5,345 V 377.551"
         style="fill:none;stroke:#262626;stroke-width:5.0025;stroke-linecap:square;stroke-linejoin:round;stroke-miterlimit:10;stroke-dasharray:none;stroke-opacity:1"
         id="path26" /><path
         d="M 1849.5,345 V 377.551"
         style="fill:none;stroke:#262626;stroke-width:5.0025;stroke-linecap:square;stroke-linejoin:round;stroke-miterlimit:10;stroke-dasharray:none;stroke-opacity:1"
         id="path28" /><path
         d="M 2500.5,345 V 377.551"
         style="fill:none;stroke:#262626;stroke-width:5.0025;stroke-linecap:square;stroke-linejoin:round;stroke-miterlimit:10;stroke-dasharray:none;stroke-opacity:1"
         id="path30" /><path
         d="M 3151.5,345 V 377.551"
         style="fill:none;stroke:#262626;stroke-width:5.0025;stroke-linecap:square;stroke-linejoin:round;stroke-miterlimit:10;stroke-dasharray:none;stroke-opacity:1"
         id="path32" /><path
         d="M 3802.5,345 V 377.551"
         style="fill:none;stroke:#262626;stroke-width:5.0025;stroke-linecap:square;stroke-linejoin:round;stroke-miterlimit:10;stroke-dasharray:none;stroke-opacity:1"
         id="path34" /><path
         d="M 547.5,2917.5 V 2884.95"
         style="fill:none;stroke:#262626;stroke-width:5.0025;stroke-linecap:square;stroke-linejoin:round;stroke-miterlimit:10;stroke-dasharray:none;stroke-opacity:1"
         id="path36" /><path
         d="M 1198.5,2917.5 V 2884.95"
         style="fill:none;stroke:#262626;stroke-width:5.0025;stroke-linecap:square;stroke-linejoin:round;stroke-miterlimit:10;stroke-dasharray:none;stroke-opacity:1"
         id="path38" /><path
         d="M 1849.5,2917.5 V 2884.95"
         style="fill:none;stroke:#262626;stroke-width:5.0025;stroke-linecap:square;stroke-linejoin:round;stroke-miterlimit:10;stroke-dasharray:none;stroke-opacity:1"
         id="path40" /><path
         d="M 2500.5,2917.5 V 2884.95"
         style="fill:none;stroke:#262626;stroke-width:5.0025;stroke-linecap:square;stroke-linejoin:round;stroke-miterlimit:10;stroke-dasharray:none;stroke-opacity:1"
         id="path42" /><path
         d="M 3151.5,2917.5 V 2884.95"
         style="fill:none;stroke:#262626;stroke-width:5.0025;stroke-linecap:square;stroke-linejoin:round;stroke-miterlimit:10;stroke-dasharray:none;stroke-opacity:1"
         id="path44" /><path
         d="M 3802.5,2917.5 V 2884.95"
         style="fill:none;stroke:#262626;stroke-width:5.0025;stroke-linecap:square;stroke-linejoin:round;stroke-miterlimit:10;stroke-dasharray:none;stroke-opacity:1"
         id="path46" /><g
         id="g48"
         transform="scale(10)"><text
           transform="matrix(1,0,0,-1,51.375,20.75)"
           style="font-variant:normal;font-weight:normal;font-size:9.99975px;font-family:Helvetica;-inkscape-font-specification:Helvetica;writing-mode:lr-tb;fill:#262626;fill-opacity:1;fill-rule:nonzero;stroke:none"
           id="text52"><tspan
             x="0 60.224995 65.784859 68.564789 125.32497 130.88483 133.66476 190.42494 195.9848 198.76472 255.52492 261.08478 263.86472 325.49985"
             y="0"
             sodipodi:role="line"
             id="tspan50">00.20.40.60.81</tspan></text><text
           transform="matrix(1,0,0,-1,212.625,6.25)"
           style="font-variant:normal;font-weight:normal;font-size:11.0002px;font-family:Helvetica;-inkscape-font-specification:Helvetica;writing-mode:lr-tb;fill:#262626;fill-opacity:1;fill-rule:nonzero;stroke:none"
           id="text56"><tspan
             x="0 5.5001001"
             y="0"
             sodipodi:role="line"
             id="tspan54">x'</tspan></text></g><path
         d="M 547.5,345 V 2917.5"
         style="fill:none;stroke:#262626;stroke-width:5.0025;stroke-linecap:square;stroke-linejoin:round;stroke-miterlimit:10;stroke-dasharray:none;stroke-opacity:1"
         id="path58" /><path
         d="M 3802.5,345 V 2917.5"
         style="fill:none;stroke:#262626;stroke-width:5.0025;stroke-linecap:square;stroke-linejoin:round;stroke-miterlimit:10;stroke-dasharray:none;stroke-opacity:1"
         id="path60" /><path
         d="M 547.5,345 H 580.051"
         style="fill:none;stroke:#262626;stroke-width:5.0025;stroke-linecap:square;stroke-linejoin:round;stroke-miterlimit:10;stroke-dasharray:none;stroke-opacity:1"
         id="path62" /><path
         d="M 547.5,602.25 H 580.051"
         style="fill:none;stroke:#262626;stroke-width:5.0025;stroke-linecap:square;stroke-linejoin:round;stroke-miterlimit:10;stroke-dasharray:none;stroke-opacity:1"
         id="path64" /><path
         d="M 547.5,859.5 H 580.051"
         style="fill:none;stroke:#262626;stroke-width:5.0025;stroke-linecap:square;stroke-linejoin:round;stroke-miterlimit:10;stroke-dasharray:none;stroke-opacity:1"
         id="path66" /><path
         d="M 547.5,1116.75 H 580.051"
         style="fill:none;stroke:#262626;stroke-width:5.0025;stroke-linecap:square;stroke-linejoin:round;stroke-miterlimit:10;stroke-dasharray:none;stroke-opacity:1"
         id="path68" /><path
         d="M 547.5,1374 H 580.051"
         style="fill:none;stroke:#262626;stroke-width:5.0025;stroke-linecap:square;stroke-linejoin:round;stroke-miterlimit:10;stroke-dasharray:none;stroke-opacity:1"
         id="path70" /><path
         d="M 547.5,1631.25 H 580.051"
         style="fill:none;stroke:#262626;stroke-width:5.0025;stroke-linecap:square;stroke-linejoin:round;stroke-miterlimit:10;stroke-dasharray:none;stroke-opacity:1"
         id="path72" /><path
         d="M 547.5,1888.5 H 580.051"
         style="fill:none;stroke:#262626;stroke-width:5.0025;stroke-linecap:square;stroke-linejoin:round;stroke-miterlimit:10;stroke-dasharray:none;stroke-opacity:1"
         id="path74" /><path
         d="M 547.5,2145.75 H 580.051"
         style="fill:none;stroke:#262626;stroke-width:5.0025;stroke-linecap:square;stroke-linejoin:round;stroke-miterlimit:10;stroke-dasharray:none;stroke-opacity:1"
         id="path76" /><path
         d="M 547.5,2403 H 580.051"
         style="fill:none;stroke:#262626;stroke-width:5.0025;stroke-linecap:square;stroke-linejoin:round;stroke-miterlimit:10;stroke-dasharray:none;stroke-opacity:1"
         id="path78" /><path
         d="M 547.5,2660.25 H 580.051"
         style="fill:none;stroke:#262626;stroke-width:5.0025;stroke-linecap:square;stroke-linejoin:round;stroke-miterlimit:10;stroke-dasharray:none;stroke-opacity:1"
         id="path80" /><path
         d="M 547.5,2917.5 H 580.051"
         style="fill:none;stroke:#262626;stroke-width:5.0025;stroke-linecap:square;stroke-linejoin:round;stroke-miterlimit:10;stroke-dasharray:none;stroke-opacity:1"
         id="path82" /><path
         d="M 3802.5,345 H 3769.95"
         style="fill:none;stroke:#262626;stroke-width:5.0025;stroke-linecap:square;stroke-linejoin:round;stroke-miterlimit:10;stroke-dasharray:none;stroke-opacity:1"
         id="path84" /><path
         d="M 3802.5,602.25 H 3769.95"
         style="fill:none;stroke:#262626;stroke-width:5.0025;stroke-linecap:square;stroke-linejoin:round;stroke-miterlimit:10;stroke-dasharray:none;stroke-opacity:1"
         id="path86" /><path
         d="M 3802.5,859.5 H 3769.95"
         style="fill:none;stroke:#262626;stroke-width:5.0025;stroke-linecap:square;stroke-linejoin:round;stroke-miterlimit:10;stroke-dasharray:none;stroke-opacity:1"
         id="path88" /><path
         d="M 3802.5,1116.75 H 3769.95"
         style="fill:none;stroke:#262626;stroke-width:5.0025;stroke-linecap:square;stroke-linejoin:round;stroke-miterlimit:10;stroke-dasharray:none;stroke-opacity:1"
         id="path90" /><path
         d="M 3802.5,1374 H 3769.95"
         style="fill:none;stroke:#262626;stroke-width:5.0025;stroke-linecap:square;stroke-linejoin:round;stroke-miterlimit:10;stroke-dasharray:none;stroke-opacity:1"
         id="path92" /><path
         d="M 3802.5,1631.25 H 3769.95"
         style="fill:none;stroke:#262626;stroke-width:5.0025;stroke-linecap:square;stroke-linejoin:round;stroke-miterlimit:10;stroke-dasharray:none;stroke-opacity:1"
         id="path94" /><path
         d="M 3802.5,1888.5 H 3769.95"
         style="fill:none;stroke:#262626;stroke-width:5.0025;stroke-linecap:square;stroke-linejoin:round;stroke-miterlimit:10;stroke-dasharray:none;stroke-opacity:1"
         id="path96" /><path
         d="M 3802.5,2145.75 H 3769.95"
         style="fill:none;stroke:#262626;stroke-width:5.0025;stroke-linecap:square;stroke-linejoin:round;stroke-miterlimit:10;stroke-dasharray:none;stroke-opacity:1"
         id="path98" /><path
         d="M 3802.5,2403 H 3769.95"
         style="fill:none;stroke:#262626;stroke-width:5.0025;stroke-linecap:square;stroke-linejoin:round;stroke-miterlimit:10;stroke-dasharray:none;stroke-opacity:1"
         id="path100" /><path
         d="M 3802.5,2660.25 H 3769.95"
         style="fill:none;stroke:#262626;stroke-width:5.0025;stroke-linecap:square;stroke-linejoin:round;stroke-miterlimit:10;stroke-dasharray:none;stroke-opacity:1"
         id="path102" /><path
         d="M 3802.5,2917.5 H 3769.95"
         style="fill:none;stroke:#262626;stroke-width:5.0025;stroke-linecap:square;stroke-linejoin:round;stroke-miterlimit:10;stroke-dasharray:none;stroke-opacity:1"
         id="path104" /><g
         id="g106"
         transform="scale(10)"><text
           transform="matrix(1,0,0,-1,44,31.125)"
           style="font-variant:normal;font-weight:normal;font-size:9.99975px;font-family:Helvetica;-inkscape-font-specification:Helvetica;writing-mode:lr-tb;fill:#262626;fill-opacity:1;fill-rule:nonzero;stroke:none"
           id="text130"><tspan
             x="0"
             y="0"
             id="tspan108">0</tspan><tspan
             x="-9.75 -4.1901388 -1.4102085"
             y="-25.725"
             sodipodi:role="line"
             id="tspan110">0.1</tspan><tspan
             x="-9.75 -4.1901388 -1.4102085"
             y="-51.450001"
             sodipodi:role="line"
             id="tspan112">0.2</tspan><tspan
             x="-9.75 -4.1901388 -1.4102085"
             y="-77.175003"
             sodipodi:role="line"
             id="tspan114">0.3</tspan><tspan
             x="-9.75 -4.1901388 -1.4102085"
             y="-102.9"
             sodipodi:role="line"
             id="tspan116">0.4</tspan><tspan
             x="-9.75 -4.1901388 -1.4102085"
             y="-128.625"
             sodipodi:role="line"
             id="tspan118">0.5</tspan><tspan
             x="-9.75 -4.1901388 -1.4102085"
             y="-154.35001"
             sodipodi:role="line"
             id="tspan120">0.6</tspan><tspan
             x="-9.75 -4.1901388 -1.4102085"
             y="-180.075"
             sodipodi:role="line"
             id="tspan122">0.7</tspan><tspan
             x="-9.75 -4.1901388 -1.4102085"
             y="-205.8"
             sodipodi:role="line"
             id="tspan124">0.8</tspan><tspan
             x="-9.75 -4.1901388 -1.4102085"
             y="-231.52499"
             sodipodi:role="line"
             id="tspan126">0.9</tspan><tspan
             x="0"
             y="-257.25"
             id="tspan128">1</tspan></text><text
           transform="matrix(0,1,1,0,28.25,159.75)"
           style="font-variant:normal;font-weight:normal;font-size:11.0002px;font-family:Helvetica;-inkscape-font-specification:Helvetica;writing-mode:lr-tb;fill:#262626;fill-opacity:1;fill-rule:nonzero;stroke:none"
           id="text134"><tspan
             x="0"
             y="0"
             id="tspan132">x</tspan></text></g><path
         d="M 547.5,345 580.051,345.105 612.602,345.473 645.148,346.148 677.699,347.16 710.25,348.531 742.801,350.273 775.352,352.402 807.898,354.938 840.449,357.871 873,361.23 905.551,365.02 938.102,369.238 970.648,373.914 1003.2,379.027 1035.75,384.609 1068.3,390.645 1100.85,397.164 1133.4,404.152 1165.95,411.621 1198.5,419.582 1231.05,428.031 1263.6,436.98 1296.15,446.43 1328.7,456.383 1361.25,466.852 1393.8,477.832 1426.35,489.328 1458.9,501.352 1491.45,513.898 1524,526.98 1556.55,540.594 1589.1,554.746 1621.65,569.43 1654.2,584.672 1686.75,600.449 1719.3,616.785 1751.85,633.668 1784.4,651.113 1816.95,669.113 1849.5,687.684 1882.05,706.809 1914.6,726.512 1947.15,746.773 1979.7,767.617 2012.25,789.039 2044.8,811.043 2077.35,833.617 2109.9,856.785 2142.45,880.531 2175,904.875 2207.55,929.805 2240.1,955.328 2272.65,981.449 2305.2,1008.16 2337.75,1035.48 2370.3,1063.4 2402.85,1091.93 2435.4,1121.06 2467.95,1150.81 2500.5,1181.16 2533.05,1212.12 2565.6,1243.7 2598.15,1275.9 2630.7,1308.72 2663.25,1342.16 2695.8,1376.22 2728.35,1410.91 2760.9,1446.23 2793.45,1482.16 2826,1518.73 2858.55,1555.94 2891.1,1593.78 2923.65,1632.25 2956.2,1671.38 2988.75,1711.13 3021.3,1751.52 3053.85,1792.55 3086.4,1834.24 3118.95,1876.56 3151.5,1919.54 3184.05,1963.16 3216.6,2007.44 3249.15,2052.37 3281.7,2097.95 3314.25,2144.19 3346.8,2191.09 3379.35,2238.64 3411.9,2286.86 3444.45,2335.73 3477,2385.28 3509.55,2435.48 3542.1,2486.36 3574.65,2537.89 3607.2,2590.1 3639.75,2642.98 3672.3,2696.54 3704.85,2750.77 3737.4,2805.67 3769.95,2861.24 3802.5,2917.5"
         style="fill:none;stroke:#0072bd;stroke-width:5.0025;stroke-linecap:butt;stroke-linejoin:round;stroke-miterlimit:10;stroke-dasharray:none;stroke-opacity:1"
         id="path136" /></g></g></svg>
