<?xml version="1.0" encoding="UTF-8" standalone="no"?>
<svg
   xmlns:dc="http://purl.org/dc/elements/1.1/"
   xmlns:cc="http://creativecommons.org/ns#"
   xmlns:rdf="http://www.w3.org/1999/02/22-rdf-syntax-ns#"
   xmlns:svg="http://www.w3.org/2000/svg"
   xmlns="http://www.w3.org/2000/svg"
   xmlns:sodipodi="http://sodipodi.sourceforge.net/DTD/sodipodi-0.dtd"
   xmlns:inkscape="http://www.inkscape.org/namespaces/inkscape"
   version="1.1"
   id="svg2"
   xml:space="preserve"
   width="701.55084"
   height="203.21109"
   viewBox="0 0 701.55084 203.21109"
   sodipodi:docname="hue_transfer.svg"
   inkscape:version="1.0.2 (e86c870879, 2021-01-15)"><metadata
     id="metadata8"><rdf:RDF><cc:Work
         rdf:about=""><dc:format>image/svg+xml</dc:format><dc:type
           rdf:resource="http://purl.org/dc/dcmitype/StillImage" /><dc:title></dc:title></cc:Work></rdf:RDF></metadata><defs
     id="defs6" /><sodipodi:namedview
     pagecolor="#ffffff"
     bordercolor="#666666"
     borderopacity="1"
     objecttolerance="10"
     gridtolerance="10"
     guidetolerance="10"
     inkscape:pageopacity="0"
     inkscape:pageshadow="2"
     inkscape:window-width="1920"
     inkscape:window-height="1051"
     id="namedview4"
     showgrid="false"
     inkscape:zoom="1.6269626"
     inkscape:cx="118.6763"
     inkscape:cy="169.35162"
     inkscape:window-x="0"
     inkscape:window-y="0"
     inkscape:window-maximized="1"
     inkscape:current-layer="g10" /><g
     id="g10"
     inkscape:groupmode="layer"
     inkscape:label="ink_ext_XXXXXX"
     transform="matrix(1.3333333,0,0,-1.3333333,-90.782664,204.33349)"><g
       id="g12"
       transform="scale(0.1)"><path
         d="M 855,277.5 H 5940 V 1530 H 855 Z"
         style="fill:#ffffff;fill-opacity:1;fill-rule:nonzero;stroke:none"
         id="path18" /><path
         d="M 855,277.5 H 5940"
         style="fill:none;stroke:#262626;stroke-width:5.0025;stroke-linecap:square;stroke-linejoin:round;stroke-miterlimit:10;stroke-dasharray:none;stroke-opacity:1"
         id="path20" /><path
         d="M 855,1530 H 5940"
         style="fill:none;stroke:#262626;stroke-width:5.0025;stroke-linecap:square;stroke-linejoin:round;stroke-miterlimit:10;stroke-dasharray:none;stroke-opacity:1"
         id="path22" /><path
         d="M 855,277.5 V 328.352"
         style="fill:none;stroke:#262626;stroke-width:5.0025;stroke-linecap:square;stroke-linejoin:round;stroke-miterlimit:10;stroke-dasharray:none;stroke-opacity:1"
         id="path24" /><path
         d="M 1563.22,277.5 V 328.352"
         style="fill:none;stroke:#262626;stroke-width:5.0025;stroke-linecap:square;stroke-linejoin:round;stroke-miterlimit:10;stroke-dasharray:none;stroke-opacity:1"
         id="path26" /><path
         d="M 2271.43,277.5 V 328.352"
         style="fill:none;stroke:#262626;stroke-width:5.0025;stroke-linecap:square;stroke-linejoin:round;stroke-miterlimit:10;stroke-dasharray:none;stroke-opacity:1"
         id="path28" /><path
         d="M 2979.65,277.5 V 328.352"
         style="fill:none;stroke:#262626;stroke-width:5.0025;stroke-linecap:square;stroke-linejoin:round;stroke-miterlimit:10;stroke-dasharray:none;stroke-opacity:1"
         id="path30" /><path
         d="M 3687.87,277.5 V 328.352"
         style="fill:none;stroke:#262626;stroke-width:5.0025;stroke-linecap:square;stroke-linejoin:round;stroke-miterlimit:10;stroke-dasharray:none;stroke-opacity:1"
         id="path32" /><path
         d="M 4396.09,277.5 V 328.352"
         style="fill:none;stroke:#262626;stroke-width:5.0025;stroke-linecap:square;stroke-linejoin:round;stroke-miterlimit:10;stroke-dasharray:none;stroke-opacity:1"
         id="path34" /><path
         d="M 5104.3,277.5 V 328.352"
         style="fill:none;stroke:#262626;stroke-width:5.0025;stroke-linecap:square;stroke-linejoin:round;stroke-miterlimit:10;stroke-dasharray:none;stroke-opacity:1"
         id="path36" /><path
         d="M 5812.52,277.5 V 328.352"
         style="fill:none;stroke:#262626;stroke-width:5.0025;stroke-linecap:square;stroke-linejoin:round;stroke-miterlimit:10;stroke-dasharray:none;stroke-opacity:1"
         id="path38" /><path
         d="M 855,1530 V 1479.15"
         style="fill:none;stroke:#262626;stroke-width:5.0025;stroke-linecap:square;stroke-linejoin:round;stroke-miterlimit:10;stroke-dasharray:none;stroke-opacity:1"
         id="path40" /><path
         d="M 1563.22,1530 V 1479.15"
         style="fill:none;stroke:#262626;stroke-width:5.0025;stroke-linecap:square;stroke-linejoin:round;stroke-miterlimit:10;stroke-dasharray:none;stroke-opacity:1"
         id="path42" /><path
         d="M 2271.43,1530 V 1479.15"
         style="fill:none;stroke:#262626;stroke-width:5.0025;stroke-linecap:square;stroke-linejoin:round;stroke-miterlimit:10;stroke-dasharray:none;stroke-opacity:1"
         id="path44" /><path
         d="M 2979.65,1530 V 1479.15"
         style="fill:none;stroke:#262626;stroke-width:5.0025;stroke-linecap:square;stroke-linejoin:round;stroke-miterlimit:10;stroke-dasharray:none;stroke-opacity:1"
         id="path46" /><path
         d="M 3687.87,1530 V 1479.15"
         style="fill:none;stroke:#262626;stroke-width:5.0025;stroke-linecap:square;stroke-linejoin:round;stroke-miterlimit:10;stroke-dasharray:none;stroke-opacity:1"
         id="path48" /><path
         d="M 4396.09,1530 V 1479.15"
         style="fill:none;stroke:#262626;stroke-width:5.0025;stroke-linecap:square;stroke-linejoin:round;stroke-miterlimit:10;stroke-dasharray:none;stroke-opacity:1"
         id="path50" /><path
         d="M 5104.3,1530 V 1479.15"
         style="fill:none;stroke:#262626;stroke-width:5.0025;stroke-linecap:square;stroke-linejoin:round;stroke-miterlimit:10;stroke-dasharray:none;stroke-opacity:1"
         id="path52" /><path
         d="M 5812.52,1530 V 1479.15"
         style="fill:none;stroke:#262626;stroke-width:5.0025;stroke-linecap:square;stroke-linejoin:round;stroke-miterlimit:10;stroke-dasharray:none;stroke-opacity:1"
         id="path54" /><g
         id="g56"
         transform="scale(10)"><text
           transform="matrix(1,0,0,-1,82.5,15.95)"
           style="font-variant:normal;font-weight:normal;font-size:9px;font-family:Helvetica;-inkscape-font-specification:Helvetica;writing-mode:lr-tb;fill:#262626;fill-opacity:1;fill-rule:nonzero;stroke:none"
           id="text60"><tspan
             x="0 67.821838 72.825844 136.01836 141.02235 146.02635 206.84026 211.84425 216.84825 277.6618 282.6658 287.6698 348.4837 353.4877 358.4917 419.3056 424.3096 429.3136 490.1275 495.1315 500.1355"
             y="0"
             sodipodi:role="line"
             id="tspan58">050100150200250300350</tspan></text><text
           transform="matrix(1,0,0,-1,321.75,3)"
           style="font-variant:normal;font-weight:normal;font-size:9.9px;font-family:Helvetica;-inkscape-font-specification:Helvetica;writing-mode:lr-tb;fill:#262626;fill-opacity:1;fill-rule:nonzero;stroke:none"
           id="text64"><tspan
             x="0 5.5043998 8.2566004 11.0088 16.513201 22.017599 27.521999"
             y="0"
             sodipodi:role="line"
             id="tspan62">h [deg]</tspan></text></g><path
         d="M 855,277.5 V 1530"
         style="fill:none;stroke:#262626;stroke-width:5.0025;stroke-linecap:square;stroke-linejoin:round;stroke-miterlimit:10;stroke-dasharray:none;stroke-opacity:1"
         id="path66" /><path
         d="M 5940,277.5 V 1530"
         style="fill:none;stroke:#262626;stroke-width:5.0025;stroke-linecap:square;stroke-linejoin:round;stroke-miterlimit:10;stroke-dasharray:none;stroke-opacity:1"
         id="path68" /><path
         d="M 855,381.879 H 905.852"
         style="fill:none;stroke:#262626;stroke-width:5.0025;stroke-linecap:square;stroke-linejoin:round;stroke-miterlimit:10;stroke-dasharray:none;stroke-opacity:1"
         id="path70" /><path
         d="M 855,590.625 H 905.852"
         style="fill:none;stroke:#262626;stroke-width:5.0025;stroke-linecap:square;stroke-linejoin:round;stroke-miterlimit:10;stroke-dasharray:none;stroke-opacity:1"
         id="path72" /><path
         d="M 855,799.371 H 905.852"
         style="fill:none;stroke:#262626;stroke-width:5.0025;stroke-linecap:square;stroke-linejoin:round;stroke-miterlimit:10;stroke-dasharray:none;stroke-opacity:1"
         id="path74" /><path
         d="M 855,1008.13 H 905.852"
         style="fill:none;stroke:#262626;stroke-width:5.0025;stroke-linecap:square;stroke-linejoin:round;stroke-miterlimit:10;stroke-dasharray:none;stroke-opacity:1"
         id="path76" /><path
         d="M 855,1216.88 H 905.852"
         style="fill:none;stroke:#262626;stroke-width:5.0025;stroke-linecap:square;stroke-linejoin:round;stroke-miterlimit:10;stroke-dasharray:none;stroke-opacity:1"
         id="path78" /><path
         d="M 855,1425.62 H 905.852"
         style="fill:none;stroke:#262626;stroke-width:5.0025;stroke-linecap:square;stroke-linejoin:round;stroke-miterlimit:10;stroke-dasharray:none;stroke-opacity:1"
         id="path80" /><path
         d="M 5940,381.879 H 5889.15"
         style="fill:none;stroke:#262626;stroke-width:5.0025;stroke-linecap:square;stroke-linejoin:round;stroke-miterlimit:10;stroke-dasharray:none;stroke-opacity:1"
         id="path82" /><path
         d="M 5940,590.625 H 5889.15"
         style="fill:none;stroke:#262626;stroke-width:5.0025;stroke-linecap:square;stroke-linejoin:round;stroke-miterlimit:10;stroke-dasharray:none;stroke-opacity:1"
         id="path84" /><path
         d="M 5940,799.371 H 5889.15"
         style="fill:none;stroke:#262626;stroke-width:5.0025;stroke-linecap:square;stroke-linejoin:round;stroke-miterlimit:10;stroke-dasharray:none;stroke-opacity:1"
         id="path86" /><path
         d="M 5940,1008.13 H 5889.15"
         style="fill:none;stroke:#262626;stroke-width:5.0025;stroke-linecap:square;stroke-linejoin:round;stroke-miterlimit:10;stroke-dasharray:none;stroke-opacity:1"
         id="path88" /><path
         d="M 5940,1216.88 H 5889.15"
         style="fill:none;stroke:#262626;stroke-width:5.0025;stroke-linecap:square;stroke-linejoin:round;stroke-miterlimit:10;stroke-dasharray:none;stroke-opacity:1"
         id="path90" /><path
         d="M 5940,1425.62 H 5889.15"
         style="fill:none;stroke:#262626;stroke-width:5.0025;stroke-linecap:square;stroke-linejoin:round;stroke-miterlimit:10;stroke-dasharray:none;stroke-opacity:1"
         id="path92" /><g
         id="g94"
         transform="scale(10)"><text
           transform="matrix(1,0,0,-1,76.7,34.8125)"
           style="font-variant:normal;font-weight:normal;font-size:9px;font-family:Helvetica;-inkscape-font-specification:Helvetica;writing-mode:lr-tb;fill:#262626;fill-opacity:1;fill-rule:nonzero;stroke:none"
           id="text108"><tspan
             x="0"
             y="0"
             id="tspan96">0</tspan><tspan
             x="-9 -3.9960001 -1.494"
             y="-20.875"
             sodipodi:role="line"
             id="tspan98">0.2</tspan><tspan
             x="-9 -3.9960001 -1.494"
             y="-41.75"
             sodipodi:role="line"
             id="tspan100">0.4</tspan><tspan
             x="-9 -3.9960001 -1.494"
             y="-62.625"
             sodipodi:role="line"
             id="tspan102">0.6</tspan><tspan
             x="-9 -3.9960001 -1.494"
             y="-83.5"
             sodipodi:role="line"
             id="tspan104">0.8</tspan><tspan
             x="0"
             y="-104.375"
             id="tspan106">1</tspan></text></g><path
         d="M 855,1425.62 H 1846.51 L 1860.67,1373.44 1874.84,1321.25 1889,1269.06 1903.16,1216.88 1917.32,1164.69 1931.49,1112.5 1945.66,1060.31 1959.82,1008.13 1973.98,955.934 1988.14,903.75 2002.31,851.566 2016.47,799.371 2030.64,747.188 2044.81,695.004 2058.97,642.809 2073.14,590.625 2087.3,538.441 2101.46,486.246 2115.63,434.063 2129.79,381.879 H 2143.96 2158.12 2172.29 2186.45 2200.61 2214.78 2228.94 2243.11 2257.27 2271.43 2285.6 2299.76 2313.93 2328.09 2342.26 2356.42 2370.59 2384.75 2398.91 2413.08 2427.24 2441.41 2455.57 2469.73 2483.9 2498.06 2512.23 2526.39 2540.56 2554.73 2568.89 2583.05 2597.21 2611.38 2625.54 2639.71 2653.88 2668.04 2682.2 2696.36 2710.53 2724.69 2738.86 2753.02 2767.18 2781.35 2795.51 2809.68 2823.85 2838.01 2852.18 2866.34 2880.5 2894.66 2908.83 2923 2937.16 2951.32 2965.48 L 2979.65,434.063 2993.81,486.246 3007.98,538.441 3022.15,590.625 3036.31,642.809 3050.48,695.004 3064.64,747.188 3078.8,799.371 3092.97,851.566 3107.13,903.75 3121.3,955.934 3135.46,1008.13 3149.63,1060.31 3163.79,1112.5 3177.95,1164.69 3192.12,1216.88 3206.28,1269.06 3220.45,1321.25 3234.61,1373.44 3248.77,1425.62 H 3262.94 3277.1 3291.27 3305.43 3319.6 3333.76 3347.93 3362.09 3376.25 3390.42 3404.58 3418.75 3432.91 3447.07 3461.24 3475.4 3489.57 3503.73 3517.9 3532.06 3546.23 3560.39 3574.55 3588.72 3602.88 3617.05 3631.21 3645.38 3659.54 3673.7 3687.87 3702.03 3716.2 3730.36 3744.52 3758.69 3772.85 3787.02 3801.19 3815.35 3829.52 3843.68 3857.84 3872 3886.17 3900.34 3914.5 3928.66 3942.82 3956.99 3971.15 3985.32 3999.49 4013.65 4027.82 4041.98 4056.14 4070.31 4084.47 4098.64 4112.8 4126.96 4141.13 4155.29 4169.46 4183.62 4197.79 4211.95 4226.11 4240.27 4254.44 4268.61 4282.77 4296.94 4311.1 4325.27 4339.43 4353.59 4367.76 4381.92 4396.09 4410.25 4424.41 4438.58 4452.74 4466.91 4481.07 4495.24 4509.4 4523.57 4537.73 4551.89 4566.06 4580.22 4594.39 4608.55 4622.71 4636.88 4651.04 4665.21 4679.37 4693.54 4707.7 4721.86 4736.03 4750.19 4764.36 4778.52 4792.69 4806.86 4821.02 4835.18 4849.34 4863.51 4877.68 4891.84 4906 4920.16 4934.33 4948.49 4962.66 4976.83 4990.99 5005.16 5019.32 5033.48 5047.64 5061.81 5075.98 5090.14 5104.3 5118.46 5132.63 5146.8 5160.96 5175.13 5189.29 5203.46 5217.62 5231.78 5245.95 5260.11 5274.28 5288.44 5302.61 5316.77 5330.93 5345.1 5359.26 5373.43 5387.59 5401.75 5415.92 5430.08 5444.25 5458.41 5472.58 5486.74 5500.91 5515.07 5529.23 5543.4 5557.56 5571.73 5585.89 5600.05 5614.22 5628.38 5642.55 5656.71 5670.88 5685.05 5699.21 5713.37 5727.53 5741.7 5755.86 5770.03 5784.2 5798.36 5812.52 5826.68 5840.85 5855.02 5869.18 5883.34 5897.5 5911.67 5925.83 5940"
         style="fill:none;stroke:#0072bd;stroke-width:5.0025;stroke-linecap:butt;stroke-linejoin:round;stroke-miterlimit:10;stroke-dasharray:none;stroke-opacity:1"
         id="path110" /></g></g></svg>
