<?xml version="1.0" encoding="UTF-8" standalone="no"?>
<svg
   xmlns:dc="http://purl.org/dc/elements/1.1/"
   xmlns:cc="http://creativecommons.org/ns#"
   xmlns:rdf="http://www.w3.org/1999/02/22-rdf-syntax-ns#"
   xmlns:svg="http://www.w3.org/2000/svg"
   xmlns="http://www.w3.org/2000/svg"
   xmlns:xlink="http://www.w3.org/1999/xlink"
   xmlns:sodipodi="http://sodipodi.sourceforge.net/DTD/sodipodi-0.dtd"
   xmlns:inkscape="http://www.inkscape.org/namespaces/inkscape"
   width="1115"
   height="716.71997"
   viewBox="-55 -230 1115 716.71997"
   version="1.1"
   id="svg211"
   sodipodi:docname="Interpolation.svg"
   inkscape:version="1.0.2 (e86c870879, 2021-01-15)">
  <metadata
     id="metadata215">
    <rdf:RDF>
      <cc:Work
         rdf:about="">
        <dc:format>image/svg+xml</dc:format>
        <dc:type
           rdf:resource="http://purl.org/dc/dcmitype/StillImage" />
      </cc:Work>
    </rdf:RDF>
  </metadata>
  <sodipodi:namedview
     pagecolor="#ffffff"
     bordercolor="#666666"
     borderopacity="1"
     objecttolerance="10"
     gridtolerance="10"
     guidetolerance="10"
     inkscape:pageopacity="0"
     inkscape:pageshadow="2"
     inkscape:window-width="1920"
     inkscape:window-height="1051"
     id="namedview213"
     showgrid="false"
     inkscape:zoom="0.97066667"
     inkscape:cx="560"
     inkscape:cy="353"
     inkscape:window-x="0"
     inkscape:window-y="0"
     inkscape:window-maximized="1"
     inkscape:current-layer="svg211" />
  <title
     id="title2">comparison of 1D and 2D interpolation</title>
  <desc
     id="desc4">Comparison of nearest-neighbour, linear, cubic, bilinear and bicubic interpolation methods by CMG Lee. The black dots correspond to the point being interpolated, and the red, yellow, green and blue dots correspond to the neighbouring samples. Their heights above the ground correspond to their values.</desc>
  <style
     type="text/css"
     id="style6">
  .graph_1 { stroke:#666666; fill:none; }
  .graph_2 { stroke:#cc00ff; fill:none; }
  .point_i { stroke:#cc00ff; fill:none;    stroke-opacity:0.1; }
  .floor   { stroke:#eeeeee; fill:none;    stroke-opacity:1.0; }
  .base    { stroke:#66ccff; fill:#66ccff; stroke-opacity:0.2; fill-opacity:0.1; }
  .point   { stroke:#000000; }
  .point_0 { stroke:#ff0000; }
  .point_1 { stroke:#cc9900; }
  .point_2 { stroke:#009900; }
  .point_3 { stroke:#0000ff; }
  .plane_1 { stroke-opacity:0.6; }
  .plane_2 { stroke-opacity:0.4; }
  .plane_3 { stroke-opacity:0.2; }
 </style>
  <defs
     id="defs51">
    <clipPath
       id="clip_graph">
      <rect
         x="-4999"
         y="-9999"
         width="9999"
         height="9999"
         id="rect8" />
    </clipPath>
    <g
       id="point">
      <circle
         cx="0"
         cy="0"
         r="4"
         stroke-width="8"
         fill="none"
         id="circle11" />
      <path
         d="M 0,10 V 9999"
         id="path13" />
    </g>
    <circle
       id="joint"
       class="graph_2"
       cx="0"
       cy="0"
       r="3"
       fill="none" />
    <g
       id="common_1d_2">
      <path
         class="floor"
         d="M -10,0 H 310"
         id="path17" />
      <g
         clip-path="url(#clip_graph)"
         id="g23">
        <use
           class="point_1"
           xlink:href="#point"
           transform="translate(100,-100)"
           id="use19"
           x="0"
           y="0"
           width="100%"
           height="100%" />
        <use
           class="point_2"
           xlink:href="#point"
           transform="translate(200,-200)"
           id="use21"
           x="0"
           y="0"
           width="100%"
           height="100%" />
      </g>
    </g>
    <g
       id="common_1d_4">
      <use
         xlink:href="#common_1d_2"
         id="use26"
         x="0"
         y="0"
         width="100%"
         height="100%" />
      <g
         clip-path="url(#clip_graph)"
         id="g32">
        <use
           class="point_0"
           xlink:href="#point"
           transform="translate(0,-150)"
           id="use28"
           x="0"
           y="0"
           width="100%"
           height="100%" />
        <use
           class="point_3"
           xlink:href="#point"
           transform="translate(300,-50)"
           id="use30"
           x="0"
           y="0"
           width="100%"
           height="100%" />
      </g>
      <path
         class="graph_1 plane_2"
         d="M 0,-150 C 200,50 140,-430 300,-50"
         id="path34" />
    </g>
    <g
       id="common_2d_2">
      <path
         class="floor"
         d="M -10,0 H 310 M 140,40 20,-80 M 240,40 120,-80"
         id="path37" />
      <use
         class="plane_2"
         xlink:href="#common_1d_2"
         transform="translate(-40,-40)"
         id="use39"
         x="0"
         y="0"
         width="100%"
         height="100%" />
      <path
         class="base"
         d="M 100,0 H 200 L 160,-40 H 60 Z"
         id="path41" />
      <g
         clip-path="url(#clip_graph)"
         id="g47">
        <use
           class="point_1 plane_1"
           xlink:href="#point"
           transform="translate(100,-50)"
           id="use43"
           x="0"
           y="0"
           width="100%"
           height="100%" />
        <use
           class="point_2 plane_1"
           xlink:href="#point"
           transform="translate(200,-100)"
           id="use45"
           x="0"
           y="0"
           width="100%"
           height="100%" />
      </g>
    </g>
    <path
       id="base_1d"
       class="base"
       d="M 100,0 H 200" />
  </defs>
  <g
     font-family="Helvetica, Arial, sans-serif"
     font-size="40px"
     text-anchor="middle"
     stroke-linejoin="round"
     stroke-linecap="round"
     stroke-width="5"
     stroke="none"
     fill="#000000"
     id="g209"
     transform="translate(-2.5,-22)">
    <g
       id="nearest_1d">
      <text
         transform="translate(150)"
         x="0"
         y="50"
         id="text59"><tspan
           id="tspan55">1D nearest-</tspan><tspan
           x="0"
           dy="1em"
           id="tspan57">neighbour</tspan></text>
      <use
         xlink:href="#common_1d_2"
         id="use61"
         x="0"
         y="0"
         width="100%"
         height="100%" />
      <use
         xlink:href="#base_1d"
         id="use63"
         x="0"
         y="0"
         width="100%"
         height="100%" />
      <path
         class="graph_1 plane_2"
         d="M 50,-100 H 150 V -200 H 250"
         id="path65" />
      <g
         clip-path="url(#clip_graph)"
         id="g69">
        <use
           class="point"
           xlink:href="#point"
           transform="translate(125,-100)"
           id="use67"
           x="0"
           y="0"
           width="100%"
           height="100%" />
      </g>
    </g>
    <g
       id="linear_1d"
       transform="translate(350)">
      <text
         transform="translate(150)"
         x="0"
         y="60"
         id="text74"><tspan
           id="tspan72">Linear</tspan></text>
      <use
         xlink:href="#common_1d_2"
         id="use76"
         x="0"
         y="0"
         width="100%"
         height="100%" />
      <use
         xlink:href="#base_1d"
         id="use78"
         x="0"
         y="0"
         width="100%"
         height="100%" />
      <path
         class="graph_1 plane_2"
         d="M 100,-100 200,-200"
         id="path80" />
      <g
         clip-path="url(#clip_graph)"
         id="g84">
        <use
           class="point"
           xlink:href="#point"
           transform="translate(125,-125)"
           id="use82"
           x="0"
           y="0"
           width="100%"
           height="100%" />
      </g>
    </g>
    <g
       id="cubic_1d"
       transform="translate(700)">
      <text
         transform="translate(150)"
         x="0"
         y="60"
         id="text89"><tspan
           id="tspan87">Cubic</tspan></text>
      <use
         xlink:href="#common_1d_4"
         id="use91"
         x="0"
         y="0"
         width="100%"
         height="100%" />
      <path
         class="base"
         d="M 0,0 H 300"
         id="path93" />
      <g
         clip-path="url(#clip_graph)"
         id="g97">
        <use
           class="point"
           xlink:href="#point"
           transform="translate(125,-113)"
           id="use95"
           x="0"
           y="0"
           width="100%"
           height="100%" />
      </g>
    </g>
    <g
       id="nearest_2d"
       transform="translate(0,380)">
      <text
         transform="translate(150)"
         x="0"
         y="80"
         id="text104"><tspan
           id="tspan100">2D nearest-</tspan><tspan
           x="0"
           dy="1em"
           id="tspan102">neighbour</tspan></text>
      <use
         xlink:href="#common_2d_2"
         id="use106"
         x="0"
         y="0"
         width="100%"
         height="100%" />
      <path
         class="graph_1 plane_2"
         d="M 10,-140 H 110 V -240 H 210"
         id="path108" />
      <path
         class="graph_2"
         d="M 145,-30 105,-70 V -120 L 65,-160"
         id="path110" />
      <path
         class="point_i"
         d="M 85,-140 V -40 L 125,0 V -50"
         id="path112" />
      <use
         xlink:href="#joint"
         transform="translate(85,-140)"
         id="use114"
         x="0"
         y="0"
         width="100%"
         height="100%" />
      <use
         xlink:href="#joint"
         transform="translate(125,-50)"
         id="use116"
         x="0"
         y="0"
         width="100%"
         height="100%" />
      <g
         clip-path="url(#clip_graph)"
         transform="translate(-10,-10)"
         id="g120">
        <use
           class="point"
           xlink:href="#point"
           transform="translate(125,-50)"
           id="use118"
           x="0"
           y="0"
           width="100%"
           height="100%" />
      </g>
      <path
         class="graph_1 plane_1"
         d="M 50,-50 H 150 V -100 H 250"
         id="path122" />
    </g>
    <g
       id="linear_2d"
       transform="translate(350,380)">
      <text
         transform="translate(150)"
         x="0"
         y="100"
         id="text127"><tspan
           id="tspan125">Bilinear</tspan></text>
      <use
         xlink:href="#common_2d_2"
         id="use129"
         x="0"
         y="0"
         width="100%"
         height="100%" />
      <path
         class="graph_1 plane_2"
         d="M 60,-140 160,-240"
         id="path131" />
      <path
         class="graph_2"
         d="M 125,-63 85,-165"
         id="path133" />
      <path
         class="point_i"
         d="M 85,-165 V -40 L 125,0 V -63"
         id="path135" />
      <use
         xlink:href="#joint"
         transform="translate(85,-165)"
         id="use137"
         x="0"
         y="0"
         width="100%"
         height="100%" />
      <use
         xlink:href="#joint"
         transform="translate(125,-63)"
         id="use139"
         x="0"
         y="0"
         width="100%"
         height="100%" />
      <g
         clip-path="url(#clip_graph)"
         transform="translate(-10,-10)"
         id="g143">
        <use
           class="point"
           xlink:href="#point"
           transform="translate(125,-80)"
           id="use141"
           x="0"
           y="0"
           width="100%"
           height="100%" />
      </g>
      <path
         class="graph_1 plane_1"
         d="M 100,-50 200,-100"
         id="path145" />
    </g>
    <g
       id="cubic_2d"
       transform="translate(700,380)">
      <text
         transform="translate(150)"
         x="0"
         y="100"
         id="text150"><tspan
           id="tspan148">Bicubic</tspan></text>
      <path
         class="floor"
         d="M -20,0 H 320 M 150,50 10,-90 M 250,50 110,-90 M 20,40 H 360 M 350,50 210,-90 M 50,50 -90,-90"
         id="path152" />
      <g
         class="plane_3"
         clip-path="url(#clip_graph)"
         transform="translate(-80,-80)"
         id="g162">
        <use
           xlink:href="#common_1d_2"
           id="use154"
           x="0"
           y="0"
           width="100%"
           height="100%" />
        <use
           class="point_0"
           xlink:href="#point"
           transform="translate(0,-50)"
           id="use156"
           x="0"
           y="0"
           width="100%"
           height="100%" />
        <use
           class="point_3"
           xlink:href="#point"
           transform="translate(300,-170)"
           id="use158"
           x="0"
           y="0"
           width="100%"
           height="100%" />
        <path
           class="graph_1"
           d="M 0,-50 C 160,-50 100,-280 300,-170"
           id="path160" />
      </g>
      <use
         class="plane_2"
         xlink:href="#common_1d_4"
         transform="translate(-40,-40)"
         id="use164"
         x="0"
         y="0"
         width="100%"
         height="100%" />
      <g
         class="plane_1"
         clip-path="url(#clip_graph)"
         id="g176">
        <use
           class="point_0"
           xlink:href="#point"
           transform="translate(0,-200)"
           id="use166"
           x="0"
           y="0"
           width="100%"
           height="100%" />
        <use
           class="point_1"
           xlink:href="#point"
           transform="translate(100,-50)"
           id="use168"
           x="0"
           y="0"
           width="100%"
           height="100%" />
        <use
           class="point_2"
           xlink:href="#point"
           transform="translate(200,-100)"
           id="use170"
           x="0"
           y="0"
           width="100%"
           height="100%" />
        <use
           class="point_3"
           xlink:href="#point"
           transform="translate(300,-150)"
           id="use172"
           x="0"
           y="0"
           width="100%"
           height="100%" />
        <path
           class="graph_1"
           d="M 0,-200 C 100,110 200,-160 300,-150"
           id="path174" />
      </g>
      <path
         class="base"
         d="M 40,40 H 340 L 220,-80 H -80 Z"
         id="path178" />
      <path
         class="graph_2"
         d="M 165,-22 C 70,-77 125,-127 45,-214"
         id="path180" />
      <path
         class="point_i"
         d="M 45,-215 V -80 L 165,40 V -22 M 85,-153 V -40 M 125,-53 V 0"
         id="path182" />
      <use
         xlink:href="#joint"
         transform="translate(45,-215)"
         id="use184"
         x="0"
         y="0"
         width="100%"
         height="100%" />
      <use
         xlink:href="#joint"
         transform="translate(85,-153)"
         id="use186"
         x="0"
         y="0"
         width="100%"
         height="100%" />
      <use
         xlink:href="#joint"
         transform="translate(125,-53)"
         id="use188"
         x="0"
         y="0"
         width="100%"
         height="100%" />
      <use
         xlink:href="#joint"
         transform="translate(165,-22)"
         id="use190"
         x="0"
         y="0"
         width="100%"
         height="100%" />
      <g
         clip-path="url(#clip_graph)"
         transform="translate(-10,-10)"
         id="g194">
        <use
           class="point"
           xlink:href="#point"
           transform="translate(125,-58)"
           id="use192"
           x="0"
           y="0"
           width="100%"
           height="100%" />
      </g>
      <g
         class="plane_0"
         clip-path="url(#clip_graph)"
         transform="translate(40,40)"
         id="g206">
        <use
           class="point_0"
           xlink:href="#point"
           transform="translate(0,-100)"
           id="use196"
           x="0"
           y="0"
           width="100%"
           height="100%" />
        <use
           class="point_1"
           xlink:href="#point"
           transform="translate(100,-70)"
           id="use198"
           x="0"
           y="0"
           width="100%"
           height="100%" />
        <use
           class="point_2"
           xlink:href="#point"
           transform="translate(200,-50)"
           id="use200"
           x="0"
           y="0"
           width="100%"
           height="100%" />
        <use
           class="point_3"
           xlink:href="#point"
           transform="translate(300,-100)"
           id="use202"
           x="0"
           y="0"
           width="100%"
           height="100%" />
        <path
           class="graph_1"
           d="M 0,-100 C 100,-85 200,5 300,-100"
           id="path204" />
      </g>
    </g>
  </g>
</svg>
