<?xml version="1.0" encoding="UTF-8" standalone="no"?>
<svg
   xmlns:dc="http://purl.org/dc/elements/1.1/"
   xmlns:cc="http://creativecommons.org/ns#"
   xmlns:rdf="http://www.w3.org/1999/02/22-rdf-syntax-ns#"
   xmlns:svg="http://www.w3.org/2000/svg"
   xmlns="http://www.w3.org/2000/svg"
   xmlns:sodipodi="http://sodipodi.sourceforge.net/DTD/sodipodi-0.dtd"
   xmlns:inkscape="http://www.inkscape.org/namespaces/inkscape"
   version="1.1"
   id="svg2"
   xml:space="preserve"
   width="310.52081"
   height="272.65823"
   viewBox="0 0 310.52081 272.65822"
   sodipodi:docname="inv_transfer.svg"
   inkscape:version="1.0.2 (e86c870879, 2021-01-15)"><metadata
     id="metadata8"><rdf:RDF><cc:Work
         rdf:about=""><dc:format>image/svg+xml</dc:format><dc:type
           rdf:resource="http://purl.org/dc/dcmitype/StillImage" /><dc:title></dc:title></cc:Work></rdf:RDF></metadata><defs
     id="defs6"><clipPath
       clipPathUnits="userSpaceOnUse"
       id="clipPath20"><path
         d="M 0,0 H 349.99998 V 292.99996 H 0 Z"
         id="path18" /></clipPath></defs><sodipodi:namedview
     pagecolor="#ffffff"
     bordercolor="#666666"
     borderopacity="1"
     objecttolerance="10"
     gridtolerance="10"
     guidetolerance="10"
     inkscape:pageopacity="0"
     inkscape:pageshadow="2"
     inkscape:window-width="1920"
     inkscape:window-height="1051"
     id="namedview4"
     showgrid="false"
     inkscape:zoom="2.6116388"
     inkscape:cx="239.11031"
     inkscape:cy="84.328823"
     inkscape:window-x="0"
     inkscape:window-y="0"
     inkscape:window-maximized="1"
     inkscape:current-layer="g12" /><g
     id="g10"
     inkscape:groupmode="layer"
     inkscape:label="inv_transfer"
     transform="matrix(1.3333333,0,0,-1.3333333,-228.66286,690.56509)"><g
       id="g12"
       transform="matrix(0.125,0,0,-0.125,0,842)"><g
         id="g28"
         transform="matrix(6,0,0,6,1331.1022,2488.5588)"><path
           d="M 50,250 H 317 V 22 H 50 Z"
           style="fill:#ffffff;fill-opacity:1;fill-rule:nonzero;stroke:none"
           id="path30" /></g><g
         id="g32"
         transform="matrix(6,0,0,6,1331.1022,2488.5588)"><path
           d="M 50,250 H 317"
           style="fill:none;stroke:#262626;stroke-width:0.666667;stroke-linecap:square;stroke-linejoin:round;stroke-miterlimit:10;stroke-dasharray:none;stroke-opacity:1"
           id="path34" /></g><g
         id="g36"
         transform="matrix(6,0,0,6,1331.1022,2488.5588)"><path
           d="M 50,22 H 317"
           style="fill:none;stroke:#262626;stroke-width:0.666667;stroke-linecap:square;stroke-linejoin:round;stroke-miterlimit:10;stroke-dasharray:none;stroke-opacity:1"
           id="path38" /></g><g
         id="g40"
         transform="matrix(6,0,0,6,1331.1022,2488.5588)"><path
           d="M 50,250 V 247.33867"
           style="fill:none;stroke:#262626;stroke-width:0.666667;stroke-linecap:square;stroke-linejoin:round;stroke-miterlimit:10;stroke-dasharray:none;stroke-opacity:1"
           id="path42" /></g><g
         id="g44"
         transform="matrix(6,0,0,6,1331.1022,2488.5588)"><path
           d="M 103.4,250 V 247.33867"
           style="fill:none;stroke:#262626;stroke-width:0.666667;stroke-linecap:square;stroke-linejoin:round;stroke-miterlimit:10;stroke-dasharray:none;stroke-opacity:1"
           id="path46" /></g><g
         id="g48"
         transform="matrix(6,0,0,6,1331.1022,2488.5588)"><path
           d="M 156.8,250 V 247.33867"
           style="fill:none;stroke:#262626;stroke-width:0.666667;stroke-linecap:square;stroke-linejoin:round;stroke-miterlimit:10;stroke-dasharray:none;stroke-opacity:1"
           id="path50" /></g><g
         id="g52"
         transform="matrix(6,0,0,6,1331.1022,2488.5588)"><path
           d="M 210.20001,250 V 247.33867"
           style="fill:none;stroke:#262626;stroke-width:0.666667;stroke-linecap:square;stroke-linejoin:round;stroke-miterlimit:10;stroke-dasharray:none;stroke-opacity:1"
           id="path54" /></g><g
         id="g56"
         transform="matrix(6,0,0,6,1331.1022,2488.5588)"><path
           d="M 263.60001,250 V 247.33867"
           style="fill:none;stroke:#262626;stroke-width:0.666667;stroke-linecap:square;stroke-linejoin:round;stroke-miterlimit:10;stroke-dasharray:none;stroke-opacity:1"
           id="path58" /></g><g
         id="g60"
         transform="matrix(6,0,0,6,1331.1022,2488.5588)"><path
           d="M 317,250 V 247.33867"
           style="fill:none;stroke:#262626;stroke-width:0.666667;stroke-linecap:square;stroke-linejoin:round;stroke-miterlimit:10;stroke-dasharray:none;stroke-opacity:1"
           id="path62" /></g><g
         id="g64"
         transform="matrix(6,0,0,6,1331.1022,2488.5588)"><path
           d="M 50,22 V 24.661329"
           style="fill:none;stroke:#262626;stroke-width:0.666667;stroke-linecap:square;stroke-linejoin:round;stroke-miterlimit:10;stroke-dasharray:none;stroke-opacity:1"
           id="path66" /></g><g
         id="g68"
         transform="matrix(6,0,0,6,1331.1022,2488.5588)"><path
           d="M 103.4,22 V 24.661329"
           style="fill:none;stroke:#262626;stroke-width:0.666667;stroke-linecap:square;stroke-linejoin:round;stroke-miterlimit:10;stroke-dasharray:none;stroke-opacity:1"
           id="path70" /></g><g
         id="g72"
         transform="matrix(6,0,0,6,1331.1022,2488.5588)"><path
           d="M 156.8,22 V 24.661329"
           style="fill:none;stroke:#262626;stroke-width:0.666667;stroke-linecap:square;stroke-linejoin:round;stroke-miterlimit:10;stroke-dasharray:none;stroke-opacity:1"
           id="path74" /></g><g
         id="g76"
         transform="matrix(6,0,0,6,1331.1022,2488.5588)"><path
           d="M 210.20001,22 V 24.661329"
           style="fill:none;stroke:#262626;stroke-width:0.666667;stroke-linecap:square;stroke-linejoin:round;stroke-miterlimit:10;stroke-dasharray:none;stroke-opacity:1"
           id="path78" /></g><g
         id="g80"
         transform="matrix(6,0,0,6,1331.1022,2488.5588)"><path
           d="M 263.60001,22 V 24.661329"
           style="fill:none;stroke:#262626;stroke-width:0.666667;stroke-linecap:square;stroke-linejoin:round;stroke-miterlimit:10;stroke-dasharray:none;stroke-opacity:1"
           id="path82" /></g><g
         id="g84"
         transform="matrix(6,0,0,6,1331.1022,2488.5588)"><path
           d="M 317,22 V 24.661329"
           style="fill:none;stroke:#262626;stroke-width:0.666667;stroke-linecap:square;stroke-linejoin:round;stroke-miterlimit:10;stroke-dasharray:none;stroke-opacity:1"
           id="path86" /></g><g
         id="g88"><g
           id="g90"
           transform="matrix(6,0,0,6,1631.1022,4015.7589)"><text
             transform="translate(-4.5,12)"
             style="font-variant:normal;font-weight:normal;font-size:12.667px;font-family:Helvetica;-inkscape-font-specification:Helvetica;writing-mode:lr-tb;fill:#262626;fill-opacity:1;fill-rule:nonzero;stroke:none"
             id="text94"><tspan
               x="0"
               y="0"
               id="tspan92">0</tspan></text></g></g><g
         id="g96"><g
           id="g98"
           transform="matrix(6,0,0,6,1951.5022,4015.7589)"><text
             transform="translate(-10.5,12)"
             style="font-variant:normal;font-weight:normal;font-size:12.667px;font-family:Helvetica;-inkscape-font-specification:Helvetica;writing-mode:lr-tb;fill:#262626;fill-opacity:1;fill-rule:nonzero;stroke:none"
             id="text102"><tspan
               x="0 7.0428519 10.564278"
               y="0"
               sodipodi:role="line"
               id="tspan100">0.2</tspan></text></g></g><g
         id="g104"><g
           id="g106"
           transform="matrix(6,0,0,6,2271.9022,4015.7589)"><text
             transform="translate(-10.5,12)"
             style="font-variant:normal;font-weight:normal;font-size:12.667px;font-family:Helvetica;-inkscape-font-specification:Helvetica;writing-mode:lr-tb;fill:#262626;fill-opacity:1;fill-rule:nonzero;stroke:none"
             id="text110"><tspan
               x="0 7.0428519 10.564278"
               y="0"
               sodipodi:role="line"
               id="tspan108">0.4</tspan></text></g></g><g
         id="g112"><g
           id="g114"
           transform="matrix(6,0,0,6,2592.3022,4015.7589)"><text
             transform="translate(-10.5,12)"
             style="font-variant:normal;font-weight:normal;font-size:12.667px;font-family:Helvetica;-inkscape-font-specification:Helvetica;writing-mode:lr-tb;fill:#262626;fill-opacity:1;fill-rule:nonzero;stroke:none"
             id="text118"><tspan
               x="0 7.0428519 10.564278"
               y="0"
               sodipodi:role="line"
               id="tspan116">0.6</tspan></text></g></g><g
         id="g120"><g
           id="g122"
           transform="matrix(6,0,0,6,2912.7022,4015.7589)"><text
             transform="translate(-10.5,12)"
             style="font-variant:normal;font-weight:normal;font-size:12.667px;font-family:Helvetica;-inkscape-font-specification:Helvetica;writing-mode:lr-tb;fill:#262626;fill-opacity:1;fill-rule:nonzero;stroke:none"
             id="text126"><tspan
               x="0 7.0428519 10.564278"
               y="0"
               sodipodi:role="line"
               id="tspan124">0.8</tspan></text></g></g><g
         id="g128"><g
           id="g130"
           transform="matrix(6,0,0,6,3233.1022,4015.7589)"><text
             transform="translate(-4.5,12)"
             style="font-variant:normal;font-weight:normal;font-size:12.667px;font-family:Helvetica;-inkscape-font-specification:Helvetica;writing-mode:lr-tb;fill:#262626;fill-opacity:1;fill-rule:nonzero;stroke:none"
             id="text134"><tspan
               x="0"
               y="0"
               id="tspan132">1</tspan></text></g></g><g
         id="g136"
         transform="matrix(6,0,0,6,2375.1022,4192.5588)"><path
           d="M 2.8125,0.15625 C 2.375,0.15625 1.984375,0.05208333 1.640625,-0.15625 1.296875,-0.36458333 1.03125,-0.64583333 0.84375,-1 0.65625,-1.3541667 0.5625,-1.7604167 0.5625,-2.21875 0.5625,-2.8541667 0.73958333,-3.4817708 1.09375,-4.1015625 1.4479167,-4.7213542 1.9166667,-5.2239583 2.5,-5.609375 3.0833333,-5.9947917 3.6979167,-6.1875 4.34375,-6.1875 4.8125,-6.1875 5.2265625,-6.0625 5.5859375,-5.8125 5.9453125,-5.5625 6.21875,-5.2317708 6.40625,-4.8203125 6.59375,-4.4088542 6.6875,-3.96875 6.6875,-3.5 L 6.703125,-2.5625 C 7.0260417,-3.0104167 7.296875,-3.4713542 7.515625,-3.9453125 7.734375,-4.4192708 7.90625,-4.9114583 8.03125,-5.421875 8.0416667,-5.4739583 8.078125,-5.5 8.140625,-5.5 H 8.296875 C 8.3802083,-5.5 8.421875,-5.4583333 8.421875,-5.375 8.421875,-5.3645833 8.421875,-5.3489583 8.421875,-5.328125 8.3072917,-4.9010417 8.1692708,-4.4895833 8.0078125,-4.09375 7.8463542,-3.6979167 7.6536458,-3.3177083 7.4296875,-2.953125 7.2057292,-2.5885417 6.9635417,-2.2552083 6.703125,-1.953125 6.703125,-0.796875 6.8385417,-0.21875 7.109375,-0.21875 7.2864583,-0.21875 7.4296875,-0.26822917 7.5390625,-0.3671875 7.6484375,-0.46614583 7.7447917,-0.59114583 7.828125,-0.7421875 7.9114583,-0.89322917 7.9635417,-0.97395833 7.984375,-0.984375 H 8.15625 C 8.2291667,-0.984375 8.265625,-0.9375 8.265625,-0.84375 8.265625,-0.61458333 8.1328125,-0.390625 7.8671875,-0.171875 7.6015625,0.046875 7.3385417,0.15625 7.078125,0.15625 6.7447917,0.15625 6.4661458,0.046875 6.2421875,-0.171875 6.0182292,-0.390625 5.8645833,-0.67708333 5.78125,-1.03125 5.34375,-0.65625 4.8697917,-0.36458333 4.359375,-0.15625 3.8489583,0.05208333 3.3333333,0.15625 2.8125,0.15625 Z M 2.84375,-0.21875 C 3.84375,-0.21875 4.8020833,-0.625 5.71875,-1.4375 5.7083333,-1.5 5.7005208,-1.5703125 5.6953125,-1.6484375 5.6901042,-1.7265625 5.6875,-1.7708333 5.6875,-1.78125 V -3.28125 C 5.6875,-4.9791667 5.2291667,-5.828125 4.3125,-5.828125 3.7708333,-5.828125 3.2942708,-5.59375 2.8828125,-5.125 2.4713542,-4.65625 2.1614583,-4.0963542 1.953125,-3.4453125 1.7447917,-2.7942708 1.640625,-2.203125 1.640625,-1.671875 1.640625,-1.265625 1.7447917,-0.921875 1.953125,-0.640625 2.1614583,-0.359375 2.4583333,-0.21875 2.84375,-0.21875 Z"
           style="fill:#262626;fill-opacity:1;fill-rule:nonzero;stroke:none"
           id="path138" /></g><g
         id="g140"><g
           id="g142"
           transform="matrix(6,0,0,6,2429.1022,4228.5588)"><text
             style="font-variant:normal;font-weight:normal;font-size:11.147px;font-family:Helvetica;-inkscape-font-specification:Helvetica;writing-mode:lr-tb;fill:#262626;fill-opacity:1;fill-rule:nonzero;stroke:none"
             id="text146"><tspan
               x="0 2.4746339"
               y="0"
               sodipodi:role="line"
               id="tspan144">in</tspan></text></g></g><g
         id="g148"
         transform="matrix(6,0,0,6,1331.1022,2488.5588)"><path
           d="M 50,250 V 22"
           style="fill:none;stroke:#262626;stroke-width:0.666667;stroke-linecap:square;stroke-linejoin:round;stroke-miterlimit:10;stroke-dasharray:none;stroke-opacity:1"
           id="path150" /></g><g
         id="g152"
         transform="matrix(6,0,0,6,1331.1022,2488.5588)"><path
           d="M 317,250 V 22"
           style="fill:none;stroke:#262626;stroke-width:0.666667;stroke-linecap:square;stroke-linejoin:round;stroke-miterlimit:10;stroke-dasharray:none;stroke-opacity:1"
           id="path154" /></g><g
         id="g156"
         transform="matrix(6,0,0,6,1331.1022,2488.5588)"><path
           d="M 50,250 H 52.661335"
           style="fill:none;stroke:#262626;stroke-width:0.666667;stroke-linecap:square;stroke-linejoin:round;stroke-miterlimit:10;stroke-dasharray:none;stroke-opacity:1"
           id="path158" /></g><g
         id="g160"
         transform="matrix(6,0,0,6,1331.1022,2488.5588)"><path
           d="M 50,204.39999 H 52.661335"
           style="fill:none;stroke:#262626;stroke-width:0.666667;stroke-linecap:square;stroke-linejoin:round;stroke-miterlimit:10;stroke-dasharray:none;stroke-opacity:1"
           id="path162" /></g><g
         id="g164"
         transform="matrix(6,0,0,6,1331.1022,2488.5588)"><path
           d="M 50,158.8 H 52.661335"
           style="fill:none;stroke:#262626;stroke-width:0.666667;stroke-linecap:square;stroke-linejoin:round;stroke-miterlimit:10;stroke-dasharray:none;stroke-opacity:1"
           id="path166" /></g><g
         id="g168"
         transform="matrix(6,0,0,6,1331.1022,2488.5588)"><path
           d="M 50,113.2 H 52.661335"
           style="fill:none;stroke:#262626;stroke-width:0.666667;stroke-linecap:square;stroke-linejoin:round;stroke-miterlimit:10;stroke-dasharray:none;stroke-opacity:1"
           id="path170" /></g><g
         id="g172"
         transform="matrix(6,0,0,6,1331.1022,2488.5588)"><path
           d="M 50,67.599998 H 52.661335"
           style="fill:none;stroke:#262626;stroke-width:0.666667;stroke-linecap:square;stroke-linejoin:round;stroke-miterlimit:10;stroke-dasharray:none;stroke-opacity:1"
           id="path174" /></g><g
         id="g176"
         transform="matrix(6,0,0,6,1331.1022,2488.5588)"><path
           d="M 50,22 H 52.661335"
           style="fill:none;stroke:#262626;stroke-width:0.666667;stroke-linecap:square;stroke-linejoin:round;stroke-miterlimit:10;stroke-dasharray:none;stroke-opacity:1"
           id="path178" /></g><g
         id="g180"
         transform="matrix(6,0,0,6,1331.1022,2488.5588)"><path
           d="M 317,250 H 314.33865"
           style="fill:none;stroke:#262626;stroke-width:0.666667;stroke-linecap:square;stroke-linejoin:round;stroke-miterlimit:10;stroke-dasharray:none;stroke-opacity:1"
           id="path182" /></g><g
         id="g184"
         transform="matrix(6,0,0,6,1331.1022,2488.5588)"><path
           d="M 317,204.39999 H 314.33865"
           style="fill:none;stroke:#262626;stroke-width:0.666667;stroke-linecap:square;stroke-linejoin:round;stroke-miterlimit:10;stroke-dasharray:none;stroke-opacity:1"
           id="path186" /></g><g
         id="g188"
         transform="matrix(6,0,0,6,1331.1022,2488.5588)"><path
           d="M 317,158.8 H 314.33865"
           style="fill:none;stroke:#262626;stroke-width:0.666667;stroke-linecap:square;stroke-linejoin:round;stroke-miterlimit:10;stroke-dasharray:none;stroke-opacity:1"
           id="path190" /></g><g
         id="g192"
         transform="matrix(6,0,0,6,1331.1022,2488.5588)"><path
           d="M 317,113.2 H 314.33865"
           style="fill:none;stroke:#262626;stroke-width:0.666667;stroke-linecap:square;stroke-linejoin:round;stroke-miterlimit:10;stroke-dasharray:none;stroke-opacity:1"
           id="path194" /></g><g
         id="g196"
         transform="matrix(6,0,0,6,1331.1022,2488.5588)"><path
           d="M 317,67.599998 H 314.33865"
           style="fill:none;stroke:#262626;stroke-width:0.666667;stroke-linecap:square;stroke-linejoin:round;stroke-miterlimit:10;stroke-dasharray:none;stroke-opacity:1"
           id="path198" /></g><g
         id="g200"
         transform="matrix(6,0,0,6,1331.1022,2488.5588)"><path
           d="M 317,22 H 314.33865"
           style="fill:none;stroke:#262626;stroke-width:0.666667;stroke-linecap:square;stroke-linejoin:round;stroke-miterlimit:10;stroke-dasharray:none;stroke-opacity:1"
           id="path202" /></g><g
         id="g204"><g
           id="g206"
           transform="matrix(6,0,0,6,1603.9022,3988.5588)"><text
             transform="translate(-9,4.5)"
             style="font-variant:normal;font-weight:normal;font-size:12.667px;font-family:Helvetica;-inkscape-font-specification:Helvetica;writing-mode:lr-tb;fill:#262626;fill-opacity:1;fill-rule:nonzero;stroke:none"
             id="text210"><tspan
               x="0"
               y="0"
               id="tspan208">0</tspan></text></g></g><g
         id="g212"><g
           id="g214"
           transform="matrix(6,0,0,6,1603.9022,3714.9588)"><text
             transform="translate(-21,4.5)"
             style="font-variant:normal;font-weight:normal;font-size:12.667px;font-family:Helvetica;-inkscape-font-specification:Helvetica;writing-mode:lr-tb;fill:#262626;fill-opacity:1;fill-rule:nonzero;stroke:none"
             id="text218"><tspan
               x="0 7.0428519 10.564278"
               y="0"
               sodipodi:role="line"
               id="tspan216">0.2</tspan></text></g></g><g
         id="g220"><g
           id="g222"
           transform="matrix(6,0,0,6,1603.9022,3441.3589)"><text
             transform="translate(-21,4.5)"
             style="font-variant:normal;font-weight:normal;font-size:12.667px;font-family:Helvetica;-inkscape-font-specification:Helvetica;writing-mode:lr-tb;fill:#262626;fill-opacity:1;fill-rule:nonzero;stroke:none"
             id="text226"><tspan
               x="0 7.0428519 10.564278"
               y="0"
               sodipodi:role="line"
               id="tspan224">0.4</tspan></text></g></g><g
         id="g228"><g
           id="g230"
           transform="matrix(6,0,0,6,1603.9022,3167.7588)"><text
             transform="translate(-21,4.5)"
             style="font-variant:normal;font-weight:normal;font-size:12.667px;font-family:Helvetica;-inkscape-font-specification:Helvetica;writing-mode:lr-tb;fill:#262626;fill-opacity:1;fill-rule:nonzero;stroke:none"
             id="text234"><tspan
               x="0 7.0428519 10.564278"
               y="0"
               sodipodi:role="line"
               id="tspan232">0.6</tspan></text></g></g><g
         id="g236"><g
           id="g238"
           transform="matrix(6,0,0,6,1603.9022,2894.1588)"><text
             transform="translate(-21,4.5)"
             style="font-variant:normal;font-weight:normal;font-size:12.667px;font-family:Helvetica;-inkscape-font-specification:Helvetica;writing-mode:lr-tb;fill:#262626;fill-opacity:1;fill-rule:nonzero;stroke:none"
             id="text242"><tspan
               x="0 7.0428519 10.564278"
               y="0"
               sodipodi:role="line"
               id="tspan240">0.8</tspan></text></g></g><g
         id="g244"><g
           id="g246"
           transform="matrix(6,0,0,6,1603.9022,2620.5588)"><text
             transform="translate(-9,4.5)"
             style="font-variant:normal;font-weight:normal;font-size:12.667px;font-family:Helvetica;-inkscape-font-specification:Helvetica;writing-mode:lr-tb;fill:#262626;fill-opacity:1;fill-rule:nonzero;stroke:none"
             id="text250"><tspan
               x="0"
               y="0"
               id="tspan248">1</tspan></text></g></g><g
         id="g252"
         transform="matrix(-2.6e-7,-6,6,-2.6e-7,1409.1022,3388.5588)"><path
           d="M 2.8125,0.15625 C 2.375,0.15625 1.984375,0.05208333 1.640625,-0.15625 1.296875,-0.36458333 1.03125,-0.64583333 0.84375,-1 0.65625,-1.3541667 0.5625,-1.7604167 0.5625,-2.21875 0.5625,-2.8541667 0.73958333,-3.4817708 1.09375,-4.1015625 1.4479167,-4.7213542 1.9166667,-5.2239583 2.5,-5.609375 3.0833333,-5.9947917 3.6979167,-6.1875 4.34375,-6.1875 4.8125,-6.1875 5.2265625,-6.0625 5.5859375,-5.8125 5.9453125,-5.5625 6.21875,-5.2317708 6.40625,-4.8203125 6.59375,-4.4088542 6.6875,-3.96875 6.6875,-3.5 L 6.703125,-2.5625 C 7.0260417,-3.0104167 7.296875,-3.4713542 7.515625,-3.9453125 7.734375,-4.4192708 7.90625,-4.9114583 8.03125,-5.421875 8.0416667,-5.4739583 8.078125,-5.5 8.140625,-5.5 H 8.296875 C 8.3802083,-5.5 8.421875,-5.4583333 8.421875,-5.375 8.421875,-5.3645833 8.421875,-5.3489583 8.421875,-5.328125 8.3072917,-4.9010417 8.1692708,-4.4895833 8.0078125,-4.09375 7.8463542,-3.6979167 7.6536458,-3.3177083 7.4296875,-2.953125 7.2057292,-2.5885417 6.9635417,-2.2552083 6.703125,-1.953125 6.703125,-0.796875 6.8385417,-0.21875 7.109375,-0.21875 7.2864583,-0.21875 7.4296875,-0.26822917 7.5390625,-0.3671875 7.6484375,-0.46614583 7.7447917,-0.59114583 7.828125,-0.7421875 7.9114583,-0.89322917 7.9635417,-0.97395833 7.984375,-0.984375 H 8.15625 C 8.2291667,-0.984375 8.265625,-0.9375 8.265625,-0.84375 8.265625,-0.61458333 8.1328125,-0.390625 7.8671875,-0.171875 7.6015625,0.046875 7.3385417,0.15625 7.078125,0.15625 6.7447917,0.15625 6.4661458,0.046875 6.2421875,-0.171875 6.0182292,-0.390625 5.8645833,-0.67708333 5.78125,-1.03125 5.34375,-0.65625 4.8697917,-0.36458333 4.359375,-0.15625 3.8489583,0.05208333 3.3333333,0.15625 2.8125,0.15625 Z M 2.84375,-0.21875 C 3.84375,-0.21875 4.8020833,-0.625 5.71875,-1.4375 5.7083333,-1.5 5.7005208,-1.5703125 5.6953125,-1.6484375 5.6901042,-1.7265625 5.6875,-1.7708333 5.6875,-1.78125 V -3.28125 C 5.6875,-4.9791667 5.2291667,-5.828125 4.3125,-5.828125 3.7708333,-5.828125 3.2942708,-5.59375 2.8828125,-5.125 2.4713542,-4.65625 2.1614583,-4.0963542 1.953125,-3.4453125 1.7447917,-2.7942708 1.640625,-2.203125 1.640625,-1.671875 1.640625,-1.265625 1.7447917,-0.921875 1.953125,-0.640625 2.1614583,-0.359375 2.4583333,-0.21875 2.84375,-0.21875 Z"
           style="fill:#262626;fill-opacity:1;fill-rule:nonzero;stroke:none"
           id="path254" /></g><g
         id="g256"><g
           id="g258"
           transform="matrix(-2.6e-7,-6,6,-2.6e-7,1445.1022,3334.5588)"><text
             style="font-variant:normal;font-weight:normal;font-size:11.147px;font-family:Helvetica;-inkscape-font-specification:Helvetica;writing-mode:lr-tb;fill:#262626;fill-opacity:1;fill-rule:nonzero;stroke:none"
             id="text262"><tspan
               x="0 6.197732 12.395464"
               y="0"
               sodipodi:role="line"
               id="tspan260">out</tspan></text></g></g><g
         id="g264"
         transform="matrix(6,0,0,6,1331.1022,2488.5588)"><path
           d="M 50,22 52.669998,24.279999 55.34,26.559996 58.009998,28.839993 60.68,31.120005 63.349998,33.400002 66.019997,35.68 68.690002,37.959999 71.360001,40.239998 74.029999,42.519993 76.699997,44.800007 79.370003,47.080002 82.040001,49.360001 84.709999,51.639999 87.379997,53.919998 90.050003,56.199993 92.720001,58.480007 95.389999,60.760002 98.060005,63.040001 100.73,65.32 103.4,67.599998 106.07,69.879997 108.74,72.160004 111.41,74.440002 114.08,76.720001 116.75,79 119.42,81.279999 122.09,83.559998 124.76,85.839996 127.43,88.120003 130.10001,90.400002 132.77,92.68 135.44,94.959999 138.11,97.239998 140.78,99.519997 143.45,101.8 146.12001,104.08 148.79001,106.36 151.45999,108.64 154.12999,110.92 156.8,113.2 159.47,115.48 162.14,117.76 164.81,120.04 167.48,122.32 170.14999,124.6 172.82001,126.88 175.49001,129.16 178.16,131.44 180.83,133.72 183.5,136 186.17,138.28 188.84,140.56 191.50999,142.84 194.18001,145.12 196.85001,147.40001 199.52,149.68001 202.19,151.95999 204.86,154.24001 207.53,156.52 210.20001,158.8 212.87001,161.08 215.54001,163.36 218.20999,165.64 220.87999,167.92 223.54999,170.2 226.22,172.48 228.89,174.75999 231.56,177.04001 234.23,179.31999 236.89999,181.59999 239.56999,183.88 242.24001,186.16 244.91,188.44 247.58,190.72 250.25,193 252.92,195.28 255.59,197.56 258.25998,199.84 260.92999,202.12 263.60001,204.39999 266.26999,206.68001 268.94,208.95999 271.60999,211.24001 274.28,213.52 276.95001,215.8 279.62,218.08 282.29001,220.36 284.95999,222.64 287.63,224.92 290.29999,227.2 292.97,229.48 295.64001,231.75999 298.31,234.03999 300.98001,236.32001 303.64999,238.60001 306.32001,240.88 308.99002,243.16 311.66,245.44 314.33002,247.72 317,250"
           style="fill:none;stroke:#0072bd;stroke-width:0.666667;stroke-linecap:butt;stroke-linejoin:round;stroke-miterlimit:10;stroke-dasharray:none;stroke-opacity:1"
           id="path266" /></g></g></g></svg>
