<?xml version="1.0" encoding="UTF-8" standalone="no"?>
<svg
   xmlns:dc="http://purl.org/dc/elements/1.1/"
   xmlns:cc="http://creativecommons.org/ns#"
   xmlns:rdf="http://www.w3.org/1999/02/22-rdf-syntax-ns#"
   xmlns:svg="http://www.w3.org/2000/svg"
   xmlns="http://www.w3.org/2000/svg"
   xmlns:sodipodi="http://sodipodi.sourceforge.net/DTD/sodipodi-0.dtd"
   xmlns:inkscape="http://www.inkscape.org/namespaces/inkscape"
   version="1.1"
   id="svg2"
   xml:space="preserve"
   width="305.52081"
   height="263.33334"
   viewBox="0 0 305.52081 263.33333"
   sodipodi:docname="luma_transfer.svg"
   inkscape:version="1.0.2 (e86c870879, 2021-01-15)"><metadata
     id="metadata8"><rdf:RDF><cc:Work
         rdf:about=""><dc:format>image/svg+xml</dc:format><dc:type
           rdf:resource="http://purl.org/dc/dcmitype/StillImage" /><dc:title></dc:title></cc:Work></rdf:RDF></metadata><defs
     id="defs6"><clipPath
       clipPathUnits="userSpaceOnUse"
       id="clipPath20"><path
         d="M 0,0 H 344.99998 V 288 H 0 Z"
         id="path18" /></clipPath></defs><sodipodi:namedview
     pagecolor="#ffffff"
     bordercolor="#666666"
     borderopacity="1"
     objecttolerance="10"
     gridtolerance="10"
     guidetolerance="10"
     inkscape:pageopacity="0"
     inkscape:pageshadow="2"
     inkscape:window-width="1920"
     inkscape:window-height="1051"
     id="namedview4"
     showgrid="false"
     inkscape:zoom="1.8467075"
     inkscape:cx="210.44651"
     inkscape:cy="91.625962"
     inkscape:window-x="0"
     inkscape:window-y="0"
     inkscape:window-maximized="1"
     inkscape:current-layer="g12" /><g
     id="g10"
     inkscape:groupmode="layer"
     inkscape:label="luma_transfer"
     transform="matrix(1.3333333,0,0,-1.3333333,-231.16286,683.74014)"><g
       id="g12"
       transform="matrix(0.125,0,0,-0.125,0,842)"><g
         id="g14"
         transform="matrix(6,0,0,6,1346.1022,2503.5591)" /><g
         id="g28"
         transform="matrix(6,0,0,6,1346.1022,2503.5591)"><path
           d="M 51,246 H 312 V 22 H 51 Z"
           style="fill:#ffffff;fill-opacity:1;fill-rule:nonzero;stroke:none"
           id="path30" /></g><g
         id="g32"
         transform="matrix(6,0,0,6,1346.1022,2503.5591)"><path
           d="M 51,246 H 312"
           style="fill:none;stroke:#262626;stroke-width:0.666667;stroke-linecap:square;stroke-linejoin:round;stroke-miterlimit:10;stroke-dasharray:none;stroke-opacity:1"
           id="path34" /></g><g
         id="g36"
         transform="matrix(6,0,0,6,1346.1022,2503.5591)"><path
           d="M 51,21.999996 H 312"
           style="fill:none;stroke:#262626;stroke-width:0.666667;stroke-linecap:square;stroke-linejoin:round;stroke-miterlimit:10;stroke-dasharray:none;stroke-opacity:1"
           id="path38" /></g><g
         id="g40"
         transform="matrix(6,0,0,6,1346.1022,2503.5591)"><path
           d="M 51,246 V 243.39"
           style="fill:none;stroke:#262626;stroke-width:0.666667;stroke-linecap:square;stroke-linejoin:round;stroke-miterlimit:10;stroke-dasharray:none;stroke-opacity:1"
           id="path42" /></g><g
         id="g44"
         transform="matrix(6,0,0,6,1346.1022,2503.5591)"><path
           d="M 103.2,246 V 243.39"
           style="fill:none;stroke:#262626;stroke-width:0.666667;stroke-linecap:square;stroke-linejoin:round;stroke-miterlimit:10;stroke-dasharray:none;stroke-opacity:1"
           id="path46" /></g><g
         id="g48"
         transform="matrix(6,0,0,6,1346.1022,2503.5591)"><path
           d="M 155.40001,246 V 243.39"
           style="fill:none;stroke:#262626;stroke-width:0.666667;stroke-linecap:square;stroke-linejoin:round;stroke-miterlimit:10;stroke-dasharray:none;stroke-opacity:1"
           id="path50" /></g><g
         id="g52"
         transform="matrix(6,0,0,6,1346.1022,2503.5591)"><path
           d="M 207.60001,246 V 243.39"
           style="fill:none;stroke:#262626;stroke-width:0.666667;stroke-linecap:square;stroke-linejoin:round;stroke-miterlimit:10;stroke-dasharray:none;stroke-opacity:1"
           id="path54" /></g><g
         id="g56"
         transform="matrix(6,0,0,6,1346.1022,2503.5591)"><path
           d="M 259.80002,246 V 243.39"
           style="fill:none;stroke:#262626;stroke-width:0.666667;stroke-linecap:square;stroke-linejoin:round;stroke-miterlimit:10;stroke-dasharray:none;stroke-opacity:1"
           id="path58" /></g><g
         id="g60"
         transform="matrix(6,0,0,6,1346.1022,2503.5591)"><path
           d="M 312,246 V 243.39"
           style="fill:none;stroke:#262626;stroke-width:0.666667;stroke-linecap:square;stroke-linejoin:round;stroke-miterlimit:10;stroke-dasharray:none;stroke-opacity:1"
           id="path62" /></g><g
         id="g64"
         transform="matrix(6,0,0,6,1346.1022,2503.5591)"><path
           d="M 51,21.999996 V 24.610003"
           style="fill:none;stroke:#262626;stroke-width:0.666667;stroke-linecap:square;stroke-linejoin:round;stroke-miterlimit:10;stroke-dasharray:none;stroke-opacity:1"
           id="path66" /></g><g
         id="g68"
         transform="matrix(6,0,0,6,1346.1022,2503.5591)"><path
           d="M 103.2,21.999996 V 24.610003"
           style="fill:none;stroke:#262626;stroke-width:0.666667;stroke-linecap:square;stroke-linejoin:round;stroke-miterlimit:10;stroke-dasharray:none;stroke-opacity:1"
           id="path70" /></g><g
         id="g72"
         transform="matrix(6,0,0,6,1346.1022,2503.5591)"><path
           d="M 155.40001,21.999996 V 24.610003"
           style="fill:none;stroke:#262626;stroke-width:0.666667;stroke-linecap:square;stroke-linejoin:round;stroke-miterlimit:10;stroke-dasharray:none;stroke-opacity:1"
           id="path74" /></g><g
         id="g76"
         transform="matrix(6,0,0,6,1346.1022,2503.5591)"><path
           d="M 207.60001,21.999996 V 24.610003"
           style="fill:none;stroke:#262626;stroke-width:0.666667;stroke-linecap:square;stroke-linejoin:round;stroke-miterlimit:10;stroke-dasharray:none;stroke-opacity:1"
           id="path78" /></g><g
         id="g80"
         transform="matrix(6,0,0,6,1346.1022,2503.5591)"><path
           d="M 259.80002,21.999996 V 24.610003"
           style="fill:none;stroke:#262626;stroke-width:0.666667;stroke-linecap:square;stroke-linejoin:round;stroke-miterlimit:10;stroke-dasharray:none;stroke-opacity:1"
           id="path82" /></g><g
         id="g84"
         transform="matrix(6,0,0,6,1346.1022,2503.5591)"><path
           d="M 312,21.999996 V 24.610003"
           style="fill:none;stroke:#262626;stroke-width:0.666667;stroke-linecap:square;stroke-linejoin:round;stroke-miterlimit:10;stroke-dasharray:none;stroke-opacity:1"
           id="path86" /></g><g
         id="g88"><g
           id="g90"
           transform="matrix(6,0,0,6,1652.1022,4006.7591)"><text
             transform="translate(-4.5,12)"
             style="font-variant:normal;font-weight:normal;font-size:12.667px;font-family:Helvetica;-inkscape-font-specification:Helvetica;writing-mode:lr-tb;fill:#262626;fill-opacity:1;fill-rule:nonzero;stroke:none"
             id="text94"><tspan
               x="0"
               y="0"
               id="tspan92">0</tspan></text></g></g><g
         id="g96"><g
           id="g98"
           transform="matrix(6,0,0,6,1965.3022,4006.7591)"><text
             transform="translate(-10.5,12)"
             style="font-variant:normal;font-weight:normal;font-size:12.667px;font-family:Helvetica;-inkscape-font-specification:Helvetica;writing-mode:lr-tb;fill:#262626;fill-opacity:1;fill-rule:nonzero;stroke:none"
             id="text102"><tspan
               x="0 7.0428519 10.564278"
               y="0"
               sodipodi:role="line"
               id="tspan100">0.2</tspan></text></g></g><g
         id="g104"><g
           id="g106"
           transform="matrix(6,0,0,6,2278.5022,4006.7591)"><text
             transform="translate(-10.5,12)"
             style="font-variant:normal;font-weight:normal;font-size:12.667px;font-family:Helvetica;-inkscape-font-specification:Helvetica;writing-mode:lr-tb;fill:#262626;fill-opacity:1;fill-rule:nonzero;stroke:none"
             id="text110"><tspan
               x="0 7.0428519 10.564278"
               y="0"
               sodipodi:role="line"
               id="tspan108">0.4</tspan></text></g></g><g
         id="g112"><g
           id="g114"
           transform="matrix(6,0,0,6,2591.7022,4006.7591)"><text
             transform="translate(-10.5,12)"
             style="font-variant:normal;font-weight:normal;font-size:12.667px;font-family:Helvetica;-inkscape-font-specification:Helvetica;writing-mode:lr-tb;fill:#262626;fill-opacity:1;fill-rule:nonzero;stroke:none"
             id="text118"><tspan
               x="0 7.0428519 10.564278"
               y="0"
               sodipodi:role="line"
               id="tspan116">0.6</tspan></text></g></g><g
         id="g120"><g
           id="g122"
           transform="matrix(6,0,0,6,2904.9023,4006.7591)"><text
             transform="translate(-10.5,12)"
             style="font-variant:normal;font-weight:normal;font-size:12.667px;font-family:Helvetica;-inkscape-font-specification:Helvetica;writing-mode:lr-tb;fill:#262626;fill-opacity:1;fill-rule:nonzero;stroke:none"
             id="text126"><tspan
               x="0 7.0428519 10.564278"
               y="0"
               sodipodi:role="line"
               id="tspan124">0.8</tspan></text></g></g><g
         id="g128"><g
           id="g130"
           transform="matrix(6,0,0,6,3218.1022,4006.7591)"><text
             transform="translate(-4.5,12)"
             style="font-variant:normal;font-weight:normal;font-size:12.667px;font-family:Helvetica;-inkscape-font-specification:Helvetica;writing-mode:lr-tb;fill:#262626;fill-opacity:1;fill-rule:nonzero;stroke:none"
             id="text134"><tspan
               x="0"
               y="0"
               id="tspan132">1</tspan></text></g></g><g
         id="g136"
         transform="matrix(6,0,0,6,2378.1022,4177.5591)"><path
           d="M 2.8125,0.15625 C 2.375,0.15625 1.984375,0.05208333 1.640625,-0.15625 1.296875,-0.36458333 1.03125,-0.64583333 0.84375,-1 0.65625,-1.3541667 0.5625,-1.7604167 0.5625,-2.21875 0.5625,-2.8541667 0.73958333,-3.4817708 1.09375,-4.1015625 1.4479167,-4.7213542 1.9166667,-5.2239583 2.5,-5.609375 3.0833333,-5.9947917 3.6979167,-6.1875 4.34375,-6.1875 4.8125,-6.1875 5.2265625,-6.0625 5.5859375,-5.8125 5.9453125,-5.5625 6.21875,-5.2317708 6.40625,-4.8203125 6.59375,-4.4088542 6.6875,-3.96875 6.6875,-3.5 L 6.703125,-2.5625 C 7.0260417,-3.0104167 7.296875,-3.4713542 7.515625,-3.9453125 7.734375,-4.4192708 7.90625,-4.9114583 8.03125,-5.421875 8.0416667,-5.4739583 8.078125,-5.5 8.140625,-5.5 H 8.296875 C 8.3802083,-5.5 8.421875,-5.4583333 8.421875,-5.375 8.421875,-5.3645833 8.421875,-5.3489583 8.421875,-5.328125 8.3072917,-4.9010417 8.1692708,-4.4895833 8.0078125,-4.09375 7.8463542,-3.6979167 7.6536458,-3.3177083 7.4296875,-2.953125 7.2057292,-2.5885417 6.9635417,-2.2552083 6.703125,-1.953125 6.703125,-0.796875 6.8385417,-0.21875 7.109375,-0.21875 7.2864583,-0.21875 7.4296875,-0.26822917 7.5390625,-0.3671875 7.6484375,-0.46614583 7.7447917,-0.59114583 7.828125,-0.7421875 7.9114583,-0.89322917 7.9635417,-0.97395833 7.984375,-0.984375 H 8.15625 C 8.2291667,-0.984375 8.265625,-0.9375 8.265625,-0.84375 8.265625,-0.61458333 8.1328125,-0.390625 7.8671875,-0.171875 7.6015625,0.046875 7.3385417,0.15625 7.078125,0.15625 6.7447917,0.15625 6.4661458,0.046875 6.2421875,-0.171875 6.0182292,-0.390625 5.8645833,-0.67708333 5.78125,-1.03125 5.34375,-0.65625 4.8697917,-0.36458333 4.359375,-0.15625 3.8489583,0.05208333 3.3333333,0.15625 2.8125,0.15625 Z M 2.84375,-0.21875 C 3.84375,-0.21875 4.8020833,-0.625 5.71875,-1.4375 5.7083333,-1.5 5.7005208,-1.5703125 5.6953125,-1.6484375 5.6901042,-1.7265625 5.6875,-1.7708333 5.6875,-1.78125 V -3.28125 C 5.6875,-4.9791667 5.2291667,-5.828125 4.3125,-5.828125 3.7708333,-5.828125 3.2942708,-5.59375 2.8828125,-5.125 2.4713542,-4.65625 2.1614583,-4.0963542 1.953125,-3.4453125 1.7447917,-2.7942708 1.640625,-2.203125 1.640625,-1.671875 1.640625,-1.265625 1.7447917,-0.921875 1.953125,-0.640625 2.1614583,-0.359375 2.4583333,-0.21875 2.84375,-0.21875 Z"
           style="fill:#262626;fill-opacity:1;fill-rule:nonzero;stroke:none"
           id="path138" /></g><g
         id="g140"><g
           id="g142"
           transform="matrix(6,0,0,6,2432.1022,4213.5591)"><text
             style="font-variant:normal;font-weight:normal;font-size:11.147px;font-family:Helvetica;-inkscape-font-specification:Helvetica;writing-mode:lr-tb;fill:#262626;fill-opacity:1;fill-rule:nonzero;stroke:none"
             id="text146"><tspan
               x="0 2.4746339"
               y="0"
               sodipodi:role="line"
               id="tspan144">in</tspan></text></g></g><g
         id="g148"
         transform="matrix(6,0,0,6,1346.1022,2503.5591)"><path
           d="M 51,246 V 21.999996"
           style="fill:none;stroke:#262626;stroke-width:0.666667;stroke-linecap:square;stroke-linejoin:round;stroke-miterlimit:10;stroke-dasharray:none;stroke-opacity:1"
           id="path150" /></g><g
         id="g152"
         transform="matrix(6,0,0,6,1346.1022,2503.5591)"><path
           d="M 312,246 V 21.999996"
           style="fill:none;stroke:#262626;stroke-width:0.666667;stroke-linecap:square;stroke-linejoin:round;stroke-miterlimit:10;stroke-dasharray:none;stroke-opacity:1"
           id="path154" /></g><g
         id="g156"
         transform="matrix(6,0,0,6,1346.1022,2503.5591)"><path
           d="M 51,227.33333 H 53.610001"
           style="fill:none;stroke:#262626;stroke-width:0.666667;stroke-linecap:square;stroke-linejoin:round;stroke-miterlimit:10;stroke-dasharray:none;stroke-opacity:1"
           id="path158" /></g><g
         id="g160"
         transform="matrix(6,0,0,6,1346.1022,2503.5591)"><path
           d="M 51,190 H 53.610001"
           style="fill:none;stroke:#262626;stroke-width:0.666667;stroke-linecap:square;stroke-linejoin:round;stroke-miterlimit:10;stroke-dasharray:none;stroke-opacity:1"
           id="path162" /></g><g
         id="g164"
         transform="matrix(6,0,0,6,1346.1022,2503.5591)"><path
           d="M 51,152.66667 H 53.610001"
           style="fill:none;stroke:#262626;stroke-width:0.666667;stroke-linecap:square;stroke-linejoin:round;stroke-miterlimit:10;stroke-dasharray:none;stroke-opacity:1"
           id="path166" /></g><g
         id="g168"
         transform="matrix(6,0,0,6,1346.1022,2503.5591)"><path
           d="M 51,115.33333 H 53.610001"
           style="fill:none;stroke:#262626;stroke-width:0.666667;stroke-linecap:square;stroke-linejoin:round;stroke-miterlimit:10;stroke-dasharray:none;stroke-opacity:1"
           id="path170" /></g><g
         id="g172"
         transform="matrix(6,0,0,6,1346.1022,2503.5591)"><path
           d="M 51,78 H 53.610001"
           style="fill:none;stroke:#262626;stroke-width:0.666667;stroke-linecap:square;stroke-linejoin:round;stroke-miterlimit:10;stroke-dasharray:none;stroke-opacity:1"
           id="path174" /></g><g
         id="g176"
         transform="matrix(6,0,0,6,1346.1022,2503.5591)"><path
           d="M 51,40.666668 H 53.610001"
           style="fill:none;stroke:#262626;stroke-width:0.666667;stroke-linecap:square;stroke-linejoin:round;stroke-miterlimit:10;stroke-dasharray:none;stroke-opacity:1"
           id="path178" /></g><g
         id="g180"
         transform="matrix(6,0,0,6,1346.1022,2503.5591)"><path
           d="M 312,227.33333 H 309.39001"
           style="fill:none;stroke:#262626;stroke-width:0.666667;stroke-linecap:square;stroke-linejoin:round;stroke-miterlimit:10;stroke-dasharray:none;stroke-opacity:1"
           id="path182" /></g><g
         id="g184"
         transform="matrix(6,0,0,6,1346.1022,2503.5591)"><path
           d="M 312,190 H 309.39001"
           style="fill:none;stroke:#262626;stroke-width:0.666667;stroke-linecap:square;stroke-linejoin:round;stroke-miterlimit:10;stroke-dasharray:none;stroke-opacity:1"
           id="path186" /></g><g
         id="g188"
         transform="matrix(6,0,0,6,1346.1022,2503.5591)"><path
           d="M 312,152.66667 H 309.39001"
           style="fill:none;stroke:#262626;stroke-width:0.666667;stroke-linecap:square;stroke-linejoin:round;stroke-miterlimit:10;stroke-dasharray:none;stroke-opacity:1"
           id="path190" /></g><g
         id="g192"
         transform="matrix(6,0,0,6,1346.1022,2503.5591)"><path
           d="M 312,115.33333 H 309.39001"
           style="fill:none;stroke:#262626;stroke-width:0.666667;stroke-linecap:square;stroke-linejoin:round;stroke-miterlimit:10;stroke-dasharray:none;stroke-opacity:1"
           id="path194" /></g><g
         id="g196"
         transform="matrix(6,0,0,6,1346.1022,2503.5591)"><path
           d="M 312,78 H 309.39001"
           style="fill:none;stroke:#262626;stroke-width:0.666667;stroke-linecap:square;stroke-linejoin:round;stroke-miterlimit:10;stroke-dasharray:none;stroke-opacity:1"
           id="path198" /></g><g
         id="g200"
         transform="matrix(6,0,0,6,1346.1022,2503.5591)"><path
           d="M 312,40.666668 H 309.39001"
           style="fill:none;stroke:#262626;stroke-width:0.666667;stroke-linecap:square;stroke-linejoin:round;stroke-miterlimit:10;stroke-dasharray:none;stroke-opacity:1"
           id="path202" /></g><g
         id="g204"><g
           id="g206"
           transform="matrix(6,0,0,6,1624.9022,3867.5591)"><text
             transform="translate(-9,4.5)"
             style="font-variant:normal;font-weight:normal;font-size:12.667px;font-family:Helvetica;-inkscape-font-specification:Helvetica;writing-mode:lr-tb;fill:#262626;fill-opacity:1;fill-rule:nonzero;stroke:none"
             id="text210"><tspan
               x="0"
               y="0"
               id="tspan208">0</tspan></text></g></g><g
         id="g212"><g
           id="g214"
           transform="matrix(6,0,0,6,1624.9022,3643.5591)"><text
             transform="translate(-21,4.5)"
             style="font-variant:normal;font-weight:normal;font-size:12.667px;font-family:Helvetica;-inkscape-font-specification:Helvetica;writing-mode:lr-tb;fill:#262626;fill-opacity:1;fill-rule:nonzero;stroke:none"
             id="text218"><tspan
               x="0 7.0428519 10.564278"
               y="0"
               sodipodi:role="line"
               id="tspan216">0.2</tspan></text></g></g><g
         id="g220"><g
           id="g222"
           transform="matrix(6,0,0,6,1624.9022,3419.5591)"><text
             transform="translate(-21,4.5)"
             style="font-variant:normal;font-weight:normal;font-size:12.667px;font-family:Helvetica;-inkscape-font-specification:Helvetica;writing-mode:lr-tb;fill:#262626;fill-opacity:1;fill-rule:nonzero;stroke:none"
             id="text226"><tspan
               x="0 7.0428519 10.564278"
               y="0"
               sodipodi:role="line"
               id="tspan224">0.4</tspan></text></g></g><g
         id="g228"><g
           id="g230"
           transform="matrix(6,0,0,6,1624.9022,3195.5591)"><text
             transform="translate(-21,4.5)"
             style="font-variant:normal;font-weight:normal;font-size:12.667px;font-family:Helvetica;-inkscape-font-specification:Helvetica;writing-mode:lr-tb;fill:#262626;fill-opacity:1;fill-rule:nonzero;stroke:none"
             id="text234"><tspan
               x="0 7.0428519 10.564278"
               y="0"
               sodipodi:role="line"
               id="tspan232">0.6</tspan></text></g></g><g
         id="g236"><g
           id="g238"
           transform="matrix(6,0,0,6,1624.9022,2971.5591)"><text
             transform="translate(-21,4.5)"
             style="font-variant:normal;font-weight:normal;font-size:12.667px;font-family:Helvetica;-inkscape-font-specification:Helvetica;writing-mode:lr-tb;fill:#262626;fill-opacity:1;fill-rule:nonzero;stroke:none"
             id="text242"><tspan
               x="0 7.0428519 10.564278"
               y="0"
               sodipodi:role="line"
               id="tspan240">0.8</tspan></text></g></g><g
         id="g244"><g
           id="g246"
           transform="matrix(6,0,0,6,1624.9022,2747.5591)"><text
             transform="translate(-9,4.5)"
             style="font-variant:normal;font-weight:normal;font-size:12.667px;font-family:Helvetica;-inkscape-font-specification:Helvetica;writing-mode:lr-tb;fill:#262626;fill-opacity:1;fill-rule:nonzero;stroke:none"
             id="text250"><tspan
               x="0"
               y="0"
               id="tspan248">1</tspan></text></g></g><g
         id="g252"
         transform="matrix(-2.6e-7,-6,6,-2.6e-7,1424.1022,3391.5591)"><path
           d="M 2.8125,0.15625 C 2.375,0.15625 1.984375,0.05208333 1.640625,-0.15625 1.296875,-0.36458333 1.03125,-0.64583333 0.84375,-1 0.65625,-1.3541667 0.5625,-1.7604167 0.5625,-2.21875 0.5625,-2.8541667 0.73958333,-3.4817708 1.09375,-4.1015625 1.4479167,-4.7213542 1.9166667,-5.2239583 2.5,-5.609375 3.0833333,-5.9947917 3.6979167,-6.1875 4.34375,-6.1875 4.8125,-6.1875 5.2265625,-6.0625 5.5859375,-5.8125 5.9453125,-5.5625 6.21875,-5.2317708 6.40625,-4.8203125 6.59375,-4.4088542 6.6875,-3.96875 6.6875,-3.5 L 6.703125,-2.5625 C 7.0260417,-3.0104167 7.296875,-3.4713542 7.515625,-3.9453125 7.734375,-4.4192708 7.90625,-4.9114583 8.03125,-5.421875 8.0416667,-5.4739583 8.078125,-5.5 8.140625,-5.5 H 8.296875 C 8.3802083,-5.5 8.421875,-5.4583333 8.421875,-5.375 8.421875,-5.3645833 8.421875,-5.3489583 8.421875,-5.328125 8.3072917,-4.9010417 8.1692708,-4.4895833 8.0078125,-4.09375 7.8463542,-3.6979167 7.6536458,-3.3177083 7.4296875,-2.953125 7.2057292,-2.5885417 6.9635417,-2.2552083 6.703125,-1.953125 6.703125,-0.796875 6.8385417,-0.21875 7.109375,-0.21875 7.2864583,-0.21875 7.4296875,-0.26822917 7.5390625,-0.3671875 7.6484375,-0.46614583 7.7447917,-0.59114583 7.828125,-0.7421875 7.9114583,-0.89322917 7.9635417,-0.97395833 7.984375,-0.984375 H 8.15625 C 8.2291667,-0.984375 8.265625,-0.9375 8.265625,-0.84375 8.265625,-0.61458333 8.1328125,-0.390625 7.8671875,-0.171875 7.6015625,0.046875 7.3385417,0.15625 7.078125,0.15625 6.7447917,0.15625 6.4661458,0.046875 6.2421875,-0.171875 6.0182292,-0.390625 5.8645833,-0.67708333 5.78125,-1.03125 5.34375,-0.65625 4.8697917,-0.36458333 4.359375,-0.15625 3.8489583,0.05208333 3.3333333,0.15625 2.8125,0.15625 Z M 2.84375,-0.21875 C 3.84375,-0.21875 4.8020833,-0.625 5.71875,-1.4375 5.7083333,-1.5 5.7005208,-1.5703125 5.6953125,-1.6484375 5.6901042,-1.7265625 5.6875,-1.7708333 5.6875,-1.78125 V -3.28125 C 5.6875,-4.9791667 5.2291667,-5.828125 4.3125,-5.828125 3.7708333,-5.828125 3.2942708,-5.59375 2.8828125,-5.125 2.4713542,-4.65625 2.1614583,-4.0963542 1.953125,-3.4453125 1.7447917,-2.7942708 1.640625,-2.203125 1.640625,-1.671875 1.640625,-1.265625 1.7447917,-0.921875 1.953125,-0.640625 2.1614583,-0.359375 2.4583333,-0.21875 2.84375,-0.21875 Z"
           style="fill:#262626;fill-opacity:1;fill-rule:nonzero;stroke:none"
           id="path254" /></g><g
         id="g256"><g
           id="g258"
           transform="matrix(-2.6e-7,-6,6,-2.6e-7,1460.1022,3337.5591)"><text
             style="font-variant:normal;font-weight:normal;font-size:11.147px;font-family:Helvetica;-inkscape-font-specification:Helvetica;writing-mode:lr-tb;fill:#262626;fill-opacity:1;fill-rule:nonzero;stroke:none"
             id="text262"><tspan
               x="0 6.197732 12.395464"
               y="0"
               sodipodi:role="line"
               id="tspan260">out</tspan></text></g></g><g
         id="g264"
         transform="matrix(6,0,0,6,1346.1022,2503.5591)"><path
           d="M 51,227.33333 H 53.610001 56.220001 58.829998 61.439999 64.050003 66.659996 69.269997 71.879997 74.489998 77.099998 79.709999 82.32 84.93 87.540001 90.150002 92.760002 95.370003 97.980003 100.59 103.2 105.81 108.42 111.03 113.64 116.25 118.86 121.47 124.08 126.68999 129.3 L 131.91,226.98917 134.52,225.98 137.13,224.34084 139.74001,222.10666 142.34999,219.3125 144.96001,215.99333 147.57001,212.18417 150.17999,207.92 152.78999,203.23584 155.40001,198.16667 158.00999,192.7475 160.62,187.01334 163.23,180.99916 165.84,174.74001 168.45,168.27083 171.06,161.62666 173.67,154.8425 176.28,147.95334 178.89,140.99417 181.5,134 184.11,127.00584 186.72,120.04667 189.32999,113.1575 191.94,106.37334 194.55,99.729164 197.16,93.260002 199.77,87.000839 202.37999,80.986671 204.98999,75.252502 207.60001,69.833336 210.21001,64.764168 212.82001,60.079994 215.42999,55.815834 218.03999,52.006668 220.64999,48.6875 223.26001,45.893333 225.87001,43.659168 228.48,42.02 231.09,41.010834 233.7,40.666668 H 236.31 238.92001 241.53 244.14 246.75 249.36 251.97 254.57999 257.19 259.80002 262.41 265.01999 267.63 270.23999 272.85001 275.45999 278.07001 280.67999 283.29001 285.89999 288.51001 291.12 293.73001 296.34 298.94998 301.56 304.17001 306.78 309.39001 312"
           style="fill:none;stroke:#0072bd;stroke-width:0.666667;stroke-linecap:butt;stroke-linejoin:round;stroke-miterlimit:10;stroke-dasharray:none;stroke-opacity:1"
           id="path266" /></g></g></g></svg>
